;TYPE=PLATED
;Layer: PTH_Through
;EasyEDA Pro v2.2.42.2, 2025-09-27 19:40:42
;Gerber Generator version 0.3
M48
METRIC,LZ,0000.00000
;Hole size 1 = 0.30000 METRIC
T01C0.30000
;Hole size 2 = 0.30500 METRIC
T02C0.30500
;Hole size 3 = 0.40000 METRIC
T03C0.40000
;Hole size 4 = 0.50002 METRIC
T04C0.50002
%
G05
G90
T01
X-13.76742Y-2.69737
X-13.13242Y-2.69737
X-12.98482Y2.77896
X-12.75142Y-0.41137
X-12.75142Y0.22363
X-12.75142Y0.85863
X-12.35506Y2.77896
X-12.10512Y0.22249
X-11.49282Y0.22363
X-11.48142Y-0.41137
X-11.48142Y0.85863
T02
X-12.37042Y-6.223
X-7.112Y-0.47639
X-9.398Y5.49566
X2.032Y-21.22864
X1.905Y21.77136
X-3.556Y6.985
X-3.556Y5.334
X-2.032Y-21.22889
X-2.032Y21.7711
T03
X2.02256Y-2.53422G85X1.22256Y-2.53422
X-1.47731Y-2.53422G85X-2.27731Y-2.53422
X-1.47731Y3.06571G85X-2.27731Y3.06571
X2.02256Y3.06571G85X1.22256Y3.06571
T04
X4.03264Y0.26587G85X3.73266Y0.26587
X-3.98741Y0.26587G85X-4.28739Y0.26587
M30