;TYPE=PLATED
;Layer: PTH_Through_Via
;EasyEDA Pro v2.2.42.2, 2025-09-27 19:40:42
;Gerber Generator version 0.3
M48
METRIC,LZ,0000.00000
;Hole size 1 = 0.30000 METRIC
T01C0.30000
;Hole size 2 = 0.30500 METRIC
T02C0.30500
%
G05
G90
T01
X-13.76742Y-2.69737
X-13.13242Y-2.69737
X-12.98482Y2.77896
X-12.75142Y-0.41137
X-12.75142Y0.22363
X-12.75142Y0.85863
X-12.35506Y2.77896
X-12.10512Y0.22249
X-11.49282Y0.22363
X-11.48142Y-0.41137
X-11.48142Y0.85863
T02
X-12.37042Y-6.223
X-7.112Y-0.47639
X-9.398Y5.49566
X2.032Y-21.22864
X1.905Y21.77136
X-3.556Y6.985
X-3.556Y5.334
X-2.032Y-21.22889
X-2.032Y21.7711
M30