G04 Layer: TopLayer*
G04 EasyEDA Pro v2.2.42.2, 2025-09-27 19:40:42*
G04 Gerber Generator version 0.3*
G04 Scale: 100 percent, Rotated: No, Reflected: No*
G04 Dimensions in millimeters*
G04 Leading zeros omitted, absolute positions, 4 integers and 5 decimals*
G04 Generated by one-click*
%FSLAX45Y45*%
%MOMM*%
%ADD10C,0.2032*%
%ADD11O,2.5X1.6*%
%ADD12R,0.8X0.9*%
%ADD13R,0.9X0.8*%
%ADD14O,0.8X0.28001*%
%ADD15O,0.2813X0.8*%
%ADD16O,0.28001X0.8*%
%ADD17R,1.9X1.9*%
%ADD18R,1.37701X1.13254*%
%ADD19R,0.28001X1.05999*%
%ADD20O,1.6X0.8*%
%ADD21O,1.2X0.9*%
%ADD22R,0.8X0.8*%
%ADD23R,0.80648X0.86401*%
%ADD24C,0.5*%
%ADD25C,0.61*%
%ADD26C,0.3*%
%ADD27C,0.8*%
%ADD28C,1.5*%
%ADD29C,0.254*%
G75*


G04 Copper Start*
G36*
G01X-1493867Y-103378D02*
G01X-1397048Y-102485D01*
G01X-1394119Y-102572D01*
G01X-1378148Y-102572D01*
G01X-1368119Y-103571D01*
G01X-1323753Y-103571D01*
G01X-1314968Y-107294D01*
G01X-1305512Y-108565D01*
G01X-1285320Y-108565D01*
G01X-1285320Y-123830D01*
G01X-1286320Y-133859D01*
G01X-1286320Y-166555D01*
G01X-1322195Y-204808D01*
G01X-1427206Y-204431D01*
G01X-1431114Y-205198D01*
G01X-1434427Y-207407D01*
G01X-1607407Y-380387D01*
G01X-2090488Y-380387D01*
G01X-2090557Y-250813D01*
G01X-1767649Y-254937D01*
G01X-1763443Y-254085D01*
G01X-1759964Y-251571D01*
G01X-1676992Y-159300D01*
G01X-1551739Y-155498D01*
G01X-1548103Y-154706D01*
G01X-1544996Y-152658D01*
G01X-1493867Y-103378D01*
G37*
G36*
G01X-2090482Y-25197D02*
G01X-2090482Y405903D01*
G01X-1949862Y405903D01*
G01X-1949862Y-25197D01*
G01X-2090482Y-25197D01*
G37*
G36*
G01X-1394119Y147070D02*
G01X-1405144Y145834D01*
G01X-1483357Y145757D01*
G01X-1526545Y183320D01*
G01X-1529653Y185170D01*
G01X-1533212Y185813D01*
G01X-1719445Y185813D01*
G01X-1723333Y185040D01*
G01X-1726629Y182838D01*
G01X-1740695Y168772D01*
G01X-1742897Y165475D01*
G01X-1743671Y161587D01*
G01X-1743671Y-11141D01*
G01X-1754666Y-22136D01*
G01X-1878469Y-22178D01*
G01X-1878551Y436992D01*
G01X-1868787Y446038D01*
G01X-1788709Y446230D01*
G01X-1743588Y401110D01*
G01X-1743588Y300192D01*
G01X-1742815Y296304D01*
G01X-1740613Y293008D01*
G01X-1725436Y277831D01*
G01X-1722140Y275629D01*
G01X-1718252Y274855D01*
G01X-1503658Y274855D01*
G01X-1453352Y231080D01*
G01X-1450218Y229220D01*
G01X-1446630Y228585D01*
G01X-1355239Y229057D01*
G01X-1340469Y214287D01*
G01X-1337172Y212085D01*
G01X-1333284Y211311D01*
G01X-1286320Y211311D01*
G01X-1286320Y178586D01*
G01X-1285320Y168557D01*
G01X-1285320Y153063D01*
G01X-1305512Y153063D01*
G01X-1314968Y151792D01*
G01X-1323753Y148069D01*
G01X-1368119Y148069D01*
G01X-1378148Y147070D01*
G01X-1394119Y147070D01*
G37*
G36*
G01X-1179565Y254043D02*
G01X-1175445Y268356D01*
G01X-1174927Y283242D01*
G01X-1144765Y315375D01*
G01X-1120799Y298857D01*
G01X-1096979Y280204D01*
G01X-1124105Y253078D01*
G01X-1136570Y254389D01*
G01X-1148967Y252547D01*
G01X-1160512Y247669D01*
G01X-1169714Y251826D01*
G01X-1179565Y254043D01*
G37*
G36*
G01X-147731Y-177608D02*
G01X-154940Y-177608D01*
G01X-154940Y-149408D01*
G01X-147866Y-143692D01*
G01X-142461Y-136379D01*
G01X-139071Y-127940D01*
G01X-137916Y-118919D01*
G01X-137916Y-118919D01*
G01X-137546Y-118919D01*
G01X-135793Y-129986D01*
G01X-130706Y-139970D01*
G01X-122783Y-147893D01*
G01X-112799Y-152980D01*
G01X-101732Y-154733D01*
G01X-73731Y-154733D01*
G01X-62738Y-153004D01*
G01X-51744Y-154733D01*
G01X-23743Y-154733D01*
G01X-12738Y-153000D01*
G01X-1732Y-154733D01*
G01X-1732Y-154733D01*
G01X26269Y-154733D01*
G01X37262Y-153004D01*
G01X48255Y-154733D01*
G01X76256Y-154733D01*
G01X87323Y-152980D01*
G01X97307Y-147893D01*
G01X105230Y-139970D01*
G01X110317Y-129986D01*
G01X112070Y-118919D01*
G01X112070Y-12920D01*
G01X110317Y-1853D01*
G01X105230Y8131D01*
G01X97307Y16054D01*
G01X87323Y21141D01*
G01X76256Y22894D01*
G01X48255Y22894D01*
G01X37262Y21165D01*
G01X26269Y22894D01*
G01X-1732Y22894D01*
G01X-12738Y21161D01*
G01X-23743Y22894D01*
G01X-51744Y22894D01*
G01X-62738Y21165D01*
G01X-73731Y22894D01*
G01X-101732Y22894D01*
G01X-112799Y21141D01*
G01X-122783Y16054D01*
G01X-130706Y8131D01*
G01X-135793Y-1853D01*
G01X-137546Y-12920D01*
G01X-137546Y-118919D01*
G01X-137916Y-118919D01*
G01X-137916Y-12920D01*
G01X-139071Y-3899D01*
G01X-142461Y4540D01*
G01X-147866Y11853D01*
G01X-154940Y17569D01*
G01X-154940Y35606D01*
G01X-147866Y41322D01*
G01X-142461Y48635D01*
G01X-139071Y57074D01*
G01X-137916Y66094D01*
G01X-137916Y172094D01*
G01X-137546Y172094D01*
G01X-137546Y66094D01*
G01X-135793Y55027D01*
G01X-130706Y45044D01*
G01X-122783Y37120D01*
G01X-112799Y32033D01*
G01X-101732Y30280D01*
G01X-73731Y30280D01*
G01X-62738Y32009D01*
G01X-51744Y30280D01*
G01X-23743Y30280D01*
G01X-12738Y32013D01*
G01X-1732Y30280D01*
G01X-1732Y30280D01*
G01X26269Y30280D01*
G01X37262Y32009D01*
G01X48255Y30280D01*
G01X76256Y30280D01*
G01X87323Y32033D01*
G01X97307Y37120D01*
G01X105230Y45044D01*
G01X110317Y55027D01*
G01X112070Y66094D01*
G01X112070Y172094D01*
G01X110317Y183161D01*
G01X105230Y193145D01*
G01X97307Y201068D01*
G01X87323Y206155D01*
G01X76256Y207908D01*
G01X48255Y207908D01*
G01X37262Y206179D01*
G01X26269Y207908D01*
G01X-1732Y207908D01*
G01X-12738Y206175D01*
G01X-23743Y207908D01*
G01X-51744Y207908D01*
G01X-62738Y206179D01*
G01X-73731Y207908D01*
G01X-101732Y207908D01*
G01X-112799Y206155D01*
G01X-122783Y201068D01*
G01X-130706Y193145D01*
G01X-135793Y183161D01*
G01X-137546Y172094D01*
G01X-137916Y172094D01*
G01X-137916Y172094D01*
G01X-139071Y181114D01*
G01X-142461Y189553D01*
G01X-147866Y196867D01*
G01X-154940Y202582D01*
G01X-154940Y230758D01*
G01X-147731Y230758D01*
G01X-140126Y231140D01*
G01X114651Y231140D01*
G01X122256Y230758D01*
G01X129540Y230758D01*
G01X129540Y202629D01*
G01X122437Y196914D01*
G01X117007Y189592D01*
G01X113601Y181136D01*
G01X112441Y172094D01*
G01X112441Y66094D01*
G01X113601Y57052D01*
G01X117007Y48596D01*
G01X122437Y41274D01*
G01X129540Y35559D01*
G01X129540Y17615D01*
G01X122437Y11901D01*
G01X117007Y4578D01*
G01X113601Y-3878D01*
G01X112441Y-12920D01*
G01X112441Y-118919D01*
G01X113601Y-127961D01*
G01X117007Y-136417D01*
G01X122437Y-143740D01*
G01X129540Y-149454D01*
G01X129540Y-177608D01*
G01X122256Y-177608D01*
G01X112080Y-178294D01*
G01X102088Y-180340D01*
G01X-127563Y-180340D01*
G01X-137555Y-178294D01*
G01X-147731Y-177608D01*
G37*
G54D10*
G01X-1493867Y-103378D02*
G01X-1397048Y-102485D01*
G03X-1394119Y-102572I2929J49728D01*
G01X-1378148Y-102572D01*
G03X-1368119Y-103571I10029J49814D01*
G01X-1323753Y-103571D01*
G03X-1305512Y-108565I18241J30820D01*
G01X-1285320Y-108565D01*
G01X-1285320Y-123830D01*
G03X-1286320Y-133859I49814J-10029D01*
G01X-1286320Y-166555D01*
G01X-1322195Y-204808D01*
G01X-1427206Y-204431D01*
G03X-1434427Y-207407I-36J-10160D01*
G01X-1607407Y-380387D01*
G01X-2090488Y-380387D01*
G01X-2090557Y-250813D01*
G01X-1767649Y-254937D01*
G03X-1759964Y-251571I130J10159D01*
G01X-1676992Y-159300D01*
G01X-1551739Y-155498D01*
G03X-1544996Y-152658I-308J10155D01*
G01X-1493867Y-103378D01*
G01X-2090482Y-25197D02*
G01X-2090482Y405903D01*
G01X-1949862Y405903D01*
G01X-1949862Y-25197D01*
G01X-2090482Y-25197D01*
G01X-1394119Y147070D02*
G03X-1405144Y145834I0J-49814D01*
G01X-1483357Y145757D01*
G01X-1526545Y183320D01*
G03X-1533212Y185813I-6668J-7666D01*
G01X-1719445Y185813D01*
G03X-1726629Y182838I0J-10160D01*
G01X-1740695Y168772D01*
G03X-1743671Y161587I7184J-7184D01*
G01X-1743671Y-11141D01*
G01X-1754666Y-22136D01*
G01X-1878469Y-22178D01*
G01X-1878551Y436992D01*
G01X-1868787Y446038D01*
G01X-1788709Y446230D01*
G01X-1743588Y401110D01*
G01X-1743588Y300192D01*
G03X-1740613Y293008I10160J0D01*
G01X-1725436Y277831D01*
G03X-1718252Y274855I7184J7184D01*
G01X-1503658Y274855D01*
G01X-1453352Y231080D01*
G03X-1446630Y228585I6669J7665D01*
G01X-1355239Y229057D01*
G01X-1340469Y214287D01*
G03X-1333284Y211311I7184J7184D01*
G01X-1286320Y211311D01*
G01X-1286320Y178586D01*
G03X-1285320Y168557I50814J0D01*
G01X-1285320Y153063D01*
G01X-1305512Y153063D01*
G03X-1323753Y148069I0J-35814D01*
G01X-1368119Y148069D01*
G03X-1378148Y147070I0J-50814D01*
G01X-1394119Y147070D01*
G01X-1179565Y254043D02*
G03X-1174927Y283242I-55941J23853D01*
G01X-1144765Y315375D01*
G01X-1120799Y298857D01*
G01X-1096979Y280204D01*
G01X-1124105Y253078D01*
G03X-1160512Y247669I-11401J-48492D01*
G03X-1179565Y254043I-25006J-43083D01*
G01X-147731Y-177608D02*
G01X-154940Y-177608D01*
G01X-154940Y-149408D01*
G03X-137916Y-118919I-18790J30489D01*
G01X-137916Y-12920D01*
G03X-154940Y17569I-35814J0D01*
G01X-154940Y35606D01*
G03X-137916Y66094I-18790J30489D01*
G01X-137916Y172094D01*
G03X-154940Y202582I-35814J0D01*
G01X-154940Y230758D01*
G01X-147731Y230758D01*
G03X-140126Y231140I0J75814D01*
G01X114651Y231140D01*
G03X122256Y230758I7605J75432D01*
G01X129540Y230758D01*
G01X129540Y202629D01*
G03X112441Y172094I18715J-30535D01*
G01X112441Y66094D01*
G03X129540Y35559I35814J0D01*
G01X129540Y17615D01*
G03X112441Y-12920I18715J-30535D01*
G01X112441Y-118919D01*
G03X129540Y-149454I35814J0D01*
G01X129540Y-177608D01*
G01X122256Y-177608D01*
G03X102088Y-180340I0J-75814D01*
G01X-127563Y-180340D01*
G03X-147731Y-177608I-20168J-73082D01*
G01X-1732Y-154733D02*
G01X26269Y-154733D01*
G03X37262Y-153004I0J35814D01*
G03X48255Y-154733I10993J34085D01*
G01X76256Y-154733D01*
G03X112070Y-118919I0J35814D01*
G01X112070Y-12920D01*
G03X76256Y22894I-35814J0D01*
G01X48255Y22894D01*
G03X37262Y21165I0J-35814D01*
G03X26269Y22894I-10993J-34085D01*
G01X-1732Y22894D01*
G03X-12738Y21161I0J-35814D01*
G03X-23743Y22894I-11006J-34081D01*
G01X-51744Y22894D01*
G03X-62738Y21165I0J-35814D01*
G03X-73731Y22894I-10993J-34085D01*
G01X-101732Y22894D01*
G03X-137546Y-12920I0J-35814D01*
G01X-137546Y-118919D01*
G03X-101732Y-154733I35814J0D01*
G01X-73731Y-154733D01*
G03X-62738Y-153004I0J35814D01*
G03X-51744Y-154733I10993J34085D01*
G01X-23743Y-154733D01*
G03X-12738Y-153000I0J35814D01*
G03X-1732Y-154733I11006J34081D01*
G01X-1732Y30280D02*
G01X26269Y30280D01*
G03X37262Y32009I0J35814D01*
G03X48255Y30280I10993J34085D01*
G01X76256Y30280D01*
G03X112070Y66094I0J35814D01*
G01X112070Y172094D01*
G03X76256Y207908I-35814J0D01*
G01X48255Y207908D01*
G03X37262Y206179I0J-35814D01*
G03X26269Y207908I-10993J-34085D01*
G01X-1732Y207908D01*
G03X-12738Y206175I0J-35814D01*
G03X-23743Y207908I-11006J-34081D01*
G01X-51744Y207908D01*
G03X-62738Y206179I0J-35814D01*
G03X-73731Y207908I-10993J-34085D01*
G01X-101732Y207908D01*
G03X-137546Y172094I0J-35814D01*
G01X-137546Y66094D01*
G03X-101732Y30280I35814J0D01*
G01X-73731Y30280D01*
G03X-62738Y32009I0J35814D01*
G03X-51744Y30280I10993J34085D01*
G01X-23743Y30280D01*
G03X-12738Y32013I0J35814D01*
G03X-1732Y30280I11006J34081D01*
G04 Copper End*

G04 Text Start*
G36*
G01X1169227Y-892681D02*
G01X1168033Y-891488D01*
G01X1166442Y-886715D01*
G01X1162200Y-875049D01*
G01X1160079Y-869746D01*
G01X1156897Y-861261D01*
G01X1154776Y-855958D01*
G01X1152655Y-850124D01*
G01X1150533Y-844821D01*
G01X1148412Y-838988D01*
G01X1144170Y-828382D01*
G01X1139927Y-816715D01*
G01X1137806Y-811412D01*
G01X1134624Y-802927D01*
G01X1132503Y-797624D01*
G01X1130382Y-791791D01*
G01X1128261Y-786488D01*
G01X1126139Y-780655D01*
G01X1124018Y-775352D01*
G01X1119245Y-762624D01*
G01X1117655Y-758912D01*
G01X1113412Y-750427D01*
G01X1110230Y-746185D01*
G01X1106518Y-742473D01*
G01X1102806Y-740352D01*
G01X1097503Y-738761D01*
G01X1095117Y-737567D01*
G01X1094321Y-735049D01*
G01X1094321Y-731867D01*
G01X1159018Y-731867D01*
G01X1159018Y-734518D01*
G01X1158620Y-736639D01*
G01X1157427Y-737700D01*
G01X1152124Y-739291D01*
G01X1146821Y-741942D01*
G01X1145628Y-744329D01*
G01X1145230Y-748306D01*
G01X1146291Y-756261D01*
G01X1147882Y-761033D01*
G01X1148942Y-764745D01*
G01X1150533Y-768988D01*
G01X1152655Y-774291D01*
G01X1156897Y-785958D01*
G01X1159018Y-791261D01*
G01X1160609Y-796033D01*
G01X1176518Y-838458D01*
G01X1179700Y-848003D01*
G01X1180363Y-849859D01*
G01X1181291Y-850124D01*
G01X1183412Y-848003D01*
G01X1187654Y-838458D01*
G01X1189776Y-834215D01*
G01X1191897Y-828912D01*
G01X1196139Y-820427D01*
G01X1198261Y-815124D01*
G01X1202503Y-806639D01*
G01X1204624Y-801336D01*
G01X1206745Y-797094D01*
G01X1209927Y-789670D01*
G01X1214170Y-781185D01*
G01X1214700Y-778003D01*
G01X1213109Y-773230D01*
G01X1208867Y-762624D01*
G01X1206745Y-756791D01*
G01X1204624Y-752548D01*
G01X1203033Y-748836D01*
G01X1200912Y-745655D01*
G01X1198261Y-743003D01*
G01X1194549Y-740352D01*
G01X1190306Y-738761D01*
G01X1185003Y-738230D01*
G01X1181291Y-738230D01*
G01X1181291Y-731867D01*
G01X1255533Y-731867D01*
G01X1255533Y-735049D01*
G01X1255003Y-737435D01*
G01X1253412Y-738230D01*
G01X1249700Y-738761D01*
G01X1244927Y-739821D01*
G01X1239094Y-741942D01*
G01X1235912Y-745124D01*
G01X1234851Y-748306D01*
G01X1234851Y-750958D01*
G01X1235382Y-754139D01*
G01X1236443Y-758382D01*
G01X1242806Y-774291D01*
G01X1244927Y-780124D01*
G01X1259776Y-817246D01*
G01X1261897Y-823079D01*
G01X1268261Y-838988D01*
G01X1269852Y-843230D01*
G01X1271442Y-845882D01*
G01X1272503Y-845617D01*
G01X1273564Y-843761D01*
G01X1275685Y-838988D01*
G01X1277806Y-833685D01*
G01X1282048Y-822018D01*
G01X1284170Y-816715D01*
G01X1292124Y-795503D01*
G01X1293715Y-791791D01*
G01X1304852Y-762094D01*
G01X1306442Y-757321D01*
G01X1308033Y-751488D01*
G01X1307503Y-744594D01*
G01X1306177Y-741942D01*
G01X1304321Y-740352D01*
G01X1300609Y-738761D01*
G01X1295306Y-738230D01*
G01X1291594Y-738230D01*
G01X1291594Y-731867D01*
G01X1341443Y-731867D01*
G01X1341443Y-734518D01*
G01X1341045Y-736639D01*
G01X1339852Y-737700D01*
G01X1336139Y-739291D01*
G01X1331367Y-741942D01*
G01X1326594Y-745655D01*
G01X1323412Y-749367D01*
G01X1321291Y-752548D01*
G01X1319170Y-757321D01*
G01X1314927Y-767927D01*
G01X1312806Y-773760D01*
G01X1308564Y-784367D01*
G01X1306442Y-790200D01*
G01X1304321Y-795503D01*
G01X1301139Y-803988D01*
G01X1294776Y-819897D01*
G01X1292655Y-825730D01*
G01X1288412Y-836336D01*
G01X1286291Y-842170D01*
G01X1284170Y-847473D01*
G01X1280988Y-855958D01*
G01X1276745Y-866564D01*
G01X1273564Y-875049D01*
G01X1269321Y-885655D01*
G01X1267730Y-890427D01*
G01X1266537Y-892416D01*
G01X1264018Y-893079D01*
G01X1261367Y-892681D01*
G01X1259776Y-891488D01*
G01X1257655Y-886715D01*
G01X1249170Y-865503D01*
G01X1247049Y-859670D01*
G01X1240685Y-843761D01*
G01X1238564Y-837927D01*
G01X1232200Y-822018D01*
G01X1229018Y-813533D01*
G01X1222655Y-797624D01*
G01X1221594Y-795371D01*
G01X1220533Y-794973D01*
G01X1218412Y-797094D01*
G01X1215230Y-804518D01*
G01X1213109Y-808761D01*
G01X1208867Y-818306D01*
G01X1206745Y-822549D01*
G01X1202503Y-832094D01*
G01X1200382Y-836336D01*
G01X1198261Y-841639D01*
G01X1196139Y-845882D01*
G01X1192957Y-853306D01*
G01X1190836Y-857548D01*
G01X1186594Y-867094D01*
G01X1184473Y-871336D01*
G01X1180230Y-880882D01*
G01X1178109Y-885124D01*
G01X1175988Y-890427D01*
G01X1174397Y-892416D01*
G01X1171745Y-893079D01*
G01X1169227Y-892681D01*
G37*
G36*
G01X1514454Y-887245D02*
G01X1504776Y-885655D01*
G01X1505174Y-883931D01*
G01X1506367Y-883003D01*
G01X1516973Y-880882D01*
G01X1520155Y-879821D01*
G01X1523867Y-876639D01*
G01X1526518Y-870806D01*
G01X1527579Y-866033D01*
G01X1528109Y-818306D01*
G01X1527579Y-767397D01*
G01X1526518Y-759973D01*
G01X1524927Y-755200D01*
G01X1522276Y-751488D01*
G01X1519890Y-750295D01*
G01X1515912Y-749897D01*
G01X1509018Y-750958D01*
G01X1505306Y-751488D01*
G01X1503185Y-748836D01*
G01X1503185Y-746185D01*
G01X1506367Y-744594D01*
G01X1522276Y-738230D01*
G01X1527049Y-736109D01*
G01X1537655Y-731867D01*
G01X1541897Y-730276D01*
G01X1545609Y-728685D01*
G01X1551973Y-727624D01*
G01X1556745Y-727624D01*
G01X1556745Y-743003D01*
G01X1557011Y-754404D01*
G01X1557806Y-757851D01*
G01X1560458Y-756261D01*
G01X1564700Y-750958D01*
G01X1567352Y-748306D01*
G01X1572655Y-744064D01*
G01X1575306Y-741412D01*
G01X1577958Y-739291D01*
G01X1581670Y-736639D01*
G01X1585912Y-733988D01*
G01X1590155Y-731867D01*
G01X1595458Y-729745D01*
G01X1599700Y-728154D01*
G01X1607655Y-727624D01*
G01X1615609Y-728154D01*
G01X1620382Y-729215D01*
G01X1625155Y-730806D01*
G01X1628867Y-732397D01*
G01X1632049Y-734518D01*
G01X1637352Y-739821D01*
G01X1640003Y-743533D01*
G01X1642655Y-748306D01*
G01X1644776Y-752548D01*
G01X1646367Y-756791D01*
G01X1647427Y-761033D01*
G01X1648488Y-768457D01*
G01X1649549Y-859670D01*
G01X1650609Y-868154D01*
G01X1651670Y-872397D01*
G01X1653791Y-876109D01*
G01X1656442Y-878760D01*
G01X1660685Y-880882D01*
G01X1665458Y-881942D01*
G01X1670230Y-882473D01*
G01X1672617Y-883136D01*
G01X1673412Y-885124D01*
G01X1673412Y-887776D01*
G01X1595988Y-887776D01*
G01X1595988Y-885124D01*
G01X1596518Y-883136D01*
G01X1598109Y-882473D01*
G01X1603942Y-881942D01*
G01X1609245Y-880882D01*
G01X1612958Y-879821D01*
G01X1616140Y-877700D01*
G01X1618261Y-874518D01*
G01X1619852Y-870806D01*
G01X1620912Y-867094D01*
G01X1621443Y-824670D01*
G01X1620912Y-782245D01*
G01X1620382Y-777473D01*
G01X1619852Y-771639D01*
G01X1617730Y-763154D01*
G01X1616140Y-758912D01*
G01X1614018Y-755730D01*
G01X1609776Y-751488D01*
G01X1605533Y-749367D01*
G01X1600761Y-748306D01*
G01X1594927Y-748306D01*
G01X1588033Y-749367D01*
G01X1582200Y-750958D01*
G01X1576367Y-753609D01*
G01X1572124Y-756261D01*
G01X1568943Y-758382D01*
G01X1563639Y-762624D01*
G01X1558336Y-767927D01*
G01X1557143Y-780655D01*
G01X1556745Y-816715D01*
G01X1557276Y-868154D01*
G01X1558867Y-873457D01*
G01X1560988Y-876639D01*
G01X1564700Y-879821D01*
G01X1569473Y-881412D01*
G01X1573185Y-881942D01*
G01X1578488Y-882473D01*
G01X1582200Y-882473D01*
G01X1582200Y-887776D01*
G01X1543488Y-887776D01*
G01X1514454Y-887245D01*
G37*
G36*
G01X1425761Y-893079D02*
G01X1417806Y-892548D01*
G01X1414094Y-891488D01*
G01X1405609Y-889367D01*
G01X1401367Y-887776D01*
G01X1397124Y-885655D01*
G01X1392352Y-883003D01*
G01X1387579Y-879821D01*
G01X1383867Y-876639D01*
G01X1375912Y-868685D01*
G01X1372730Y-864973D01*
G01X1369548Y-860200D01*
G01X1366897Y-855427D01*
G01X1364776Y-851185D01*
G01X1363185Y-846942D01*
G01X1361594Y-842170D01*
G01X1360003Y-836867D01*
G01X1358942Y-832094D01*
G01X1357882Y-822549D01*
G01X1357352Y-813003D01*
G01X1357882Y-803458D01*
G01X1358942Y-793912D01*
G01X1360003Y-788609D01*
G01X1361594Y-781185D01*
G01X1362736Y-777473D01*
G01X1381746Y-777473D01*
G01X1382276Y-780124D01*
G01X1418337Y-780655D01*
G01X1444984Y-780124D01*
G01X1453867Y-778533D01*
G01X1453336Y-772700D01*
G01X1452276Y-766336D01*
G01X1451215Y-762094D01*
G01X1449624Y-757851D01*
G01X1447503Y-754139D01*
G01X1445382Y-750958D01*
G01X1442730Y-747776D01*
G01X1438488Y-744594D01*
G01X1433715Y-741942D01*
G01X1429473Y-740352D01*
G01X1420988Y-739291D01*
G01X1411442Y-740352D01*
G01X1405609Y-742473D01*
G01X1400306Y-745124D01*
G01X1396594Y-748306D01*
G01X1390230Y-754670D01*
G01X1387049Y-759973D01*
G01X1384927Y-764745D01*
G01X1383336Y-769518D01*
G01X1382276Y-773760D01*
G01X1381746Y-777473D01*
G01X1381746Y-777473D01*
G01X1362736Y-777473D01*
G01X1363715Y-774291D01*
G01X1365836Y-769518D01*
G01X1370609Y-759973D01*
G01X1375912Y-752548D01*
G01X1379094Y-748836D01*
G01X1384397Y-743533D01*
G01X1387049Y-741412D01*
G01X1390761Y-738761D01*
G01X1395533Y-735579D01*
G01X1400836Y-732927D01*
G01X1406139Y-730806D01*
G01X1411442Y-729215D01*
G01X1416215Y-728154D01*
G01X1428412Y-727624D01*
G01X1440609Y-728154D01*
G01X1445912Y-729215D01*
G01X1451746Y-730806D01*
G01X1456518Y-732927D01*
G01X1463942Y-737170D01*
G01X1467655Y-739821D01*
G01X1470837Y-742473D01*
G01X1473488Y-745124D01*
G01X1475609Y-747776D01*
G01X1478791Y-751488D01*
G01X1481443Y-755730D01*
G01X1483564Y-759973D01*
G01X1485685Y-764745D01*
G01X1487276Y-769518D01*
G01X1488336Y-773760D01*
G01X1489397Y-781185D01*
G01X1489927Y-786488D01*
G01X1489927Y-790200D01*
G01X1381746Y-790200D01*
G01X1381746Y-793912D01*
G01X1382276Y-802397D01*
G01X1383336Y-809821D01*
G01X1384397Y-815124D01*
G01X1386518Y-823609D01*
G01X1388109Y-827852D01*
G01X1392882Y-837397D01*
G01X1395533Y-841109D01*
G01X1397124Y-843761D01*
G01X1399246Y-846412D01*
G01X1405609Y-852776D01*
G01X1409852Y-855958D01*
G01X1413564Y-858609D01*
G01X1417806Y-860730D01*
G01X1421518Y-862321D01*
G01X1426291Y-863912D01*
G01X1431064Y-864973D01*
G01X1436897Y-865503D01*
G01X1442730Y-864973D01*
G01X1446442Y-864443D01*
G01X1452276Y-863382D01*
G01X1458109Y-861261D01*
G01X1462882Y-858609D01*
G01X1466594Y-855958D01*
G01X1469245Y-853836D01*
G01X1471897Y-851185D01*
G01X1474018Y-848533D01*
G01X1476140Y-845351D01*
G01X1478791Y-841109D01*
G01X1481443Y-836336D01*
G01X1483564Y-831033D01*
G01X1484890Y-829310D01*
G01X1486746Y-829442D01*
G01X1488867Y-832094D01*
G01X1488336Y-835276D01*
G01X1487276Y-840048D01*
G01X1485685Y-845351D01*
G01X1484094Y-849594D01*
G01X1481973Y-854367D01*
G01X1476670Y-862851D01*
G01X1471367Y-870276D01*
G01X1468185Y-873988D01*
G01X1461821Y-880352D01*
G01X1457579Y-883533D01*
G01X1454397Y-885655D01*
G01X1450155Y-887776D01*
G01X1445382Y-889897D01*
G01X1439549Y-891488D01*
G01X1434246Y-892548D01*
G01X1425761Y-893079D01*
G37*
G04 Text End*

G04 TearDrop Start*
G36*
G01X-2105728Y432649D02*
G01X-2105728Y282649D01*
G01X-2128871Y282419D01*
G01X-2147814Y281798D01*
G01X-2178698Y279796D01*
G01X-2209578Y277464D01*
G01X-2228516Y276432D01*
G01X-2251651Y275626D01*
G01X-2255748Y435574D01*
G01X-2233053Y435934D01*
G01X-2213739Y435830D01*
G01X-2180746Y434745D01*
G01X-2147750Y433343D01*
G01X-2128431Y432843D01*
G01X-2105728Y432649D01*
G37*
G36*
G01X-2037142Y-240418D02*
G01X-2037142Y-390418D01*
G01X-2068418Y-390628D01*
G01X-2095698Y-391195D01*
G01X-2143597Y-393024D01*
G01X-2191494Y-395154D01*
G01X-2250041Y-396832D01*
G01X-2252895Y-236858D01*
G01X-2218074Y-236479D01*
G01X-2189985Y-236633D01*
G01X-2145025Y-237944D01*
G01X-2100062Y-239602D01*
G01X-2071969Y-240190D01*
G01X-2037142Y-240418D01*
G37*
G36*
G01X-1865140Y142363D02*
G01X-1815140Y142363D01*
G03X-1800140Y67363I194999J0D01*
G01X-1880140Y67363D01*
G03X-1865140Y142363I-179999J75000D01*
G37*
G36*
G01X-1808943Y-97636D02*
G01X-1858942Y-97636D01*
G03X-1880140Y-22636I-143278J0D01*
G01X-1800140Y-22636D01*
G03X-1808943Y-97636I315114J-75000D01*
G37*
G36*
G01X-1815140Y245264D02*
G01X-1865140Y245264D01*
G03X-1880140Y320264I-194999J0D01*
G01X-1800140Y320264D01*
G03X-1815140Y245264I179999J-75000D01*
G37*
G36*
G01X-1865140Y312548D02*
G01X-1815140Y312548D01*
G03X-1800140Y237548I194999J0D01*
G01X-1880140Y237548D01*
G03X-1865140Y312548I-179999J75000D01*
G37*
G36*
G01X-1815140Y72549D02*
G01X-1865140Y72549D01*
G03X-1880140Y147549I-194999J0D01*
G01X-1800140Y147549D01*
G03X-1815140Y72549I179999J-75000D01*
G37*
G36*
G01X-1858942Y-46634D02*
G01X-1808943Y-46634D01*
G03X-1788943Y-121634I150625J0D01*
G01X-1878942Y-121634D01*
G03X-1858942Y-46634I-130625J75000D01*
G37*
G36*
G01X-1569833Y71567D02*
G01X-1589543Y48851D01*
G03X-1637273Y64761I-47730J-63640D01*
G01X-1585743Y119296D01*
G03X-1569833Y71567I79549J-0D01*
G37*
G36*
G01X-1596046Y-16824D02*
G01X-1569833Y-33038D01*
G03X-1585743Y-80767I63640J-47730D01*
G01X-1643775Y-32734D01*
G03X-1596046Y-16824I0J79549D01*
G37*
G36*
G01X-1324843Y-349834D02*
G01X-1324843Y-379834D01*
G03X-1369843Y-402334I-0J-56250D01*
G01X-1369843Y-327334D01*
G03X-1324843Y-349834I45000J33750D01*
G37*
G36*
G01X-1294843Y-479839D02*
G01X-1294843Y-529839D01*
G03X-1369843Y-544839I0J-194999D01*
G01X-1369843Y-464839D01*
G03X-1294843Y-479839I75000J179999D01*
G37*
G36*
G01X-1046506Y203586D02*
G01X-1046506Y153586D01*
G01X-1053528Y153987D01*
G01X-1060495Y155081D01*
G01X-1067352Y156707D01*
G01X-1074045Y158704D01*
G01X-1098068Y167149D01*
G01X-1103113Y168566D01*
G01X-1107663Y169382D01*
G01X-1111664Y169435D01*
G01X-1115060Y168563D01*
G01X-1117798Y166604D01*
G01X-1119821Y163396D01*
G01X-1121075Y158778D01*
G01X-1121506Y152587D01*
G01X-1121506Y204586D01*
G01X-1121075Y198395D01*
G01X-1119821Y193776D01*
G01X-1117798Y190568D01*
G01X-1115060Y188609D01*
G01X-1111664Y187737D01*
G01X-1107663Y187790D01*
G01X-1103113Y188606D01*
G01X-1098068Y190023D01*
G01X-1074045Y198469D01*
G01X-1067352Y200465D01*
G01X-1060495Y202091D01*
G01X-1053528Y203185D01*
G01X-1046506Y203586D01*
G37*
G36*
G01X-1327042Y-379834D02*
G01X-1327042Y-349834D01*
G03X-1282042Y-327334I-0J56250D01*
G01X-1282042Y-402334D01*
G03X-1327042Y-379834I-45000J-33750D01*
G37*
G36*
G01X-1147043Y-348297D02*
G01X-1147043Y-378297D01*
G03X-1192043Y-400797I-0J-56250D01*
G01X-1192043Y-325797D01*
G03X-1147043Y-348297I45000J33750D01*
G37*
G36*
G01X-1250506Y-279834D02*
G01X-1220506Y-279834D01*
G03X-1198006Y-324834I56250J0D01*
G01X-1273006Y-324834D01*
G03X-1250506Y-279834I-33750J45000D01*
G37*
G36*
G01X-1357042Y-529839D02*
G01X-1357042Y-479839D01*
G03X-1282042Y-464839I0J194999D01*
G01X-1282042Y-544839D01*
G03X-1357042Y-529839I-75000J-179999D01*
G37*
G36*
G01X-1220506Y324561D02*
G01X-1250506Y324561D01*
G03X-1273006Y369561I-56250J0D01*
G01X-1198006Y369561D01*
G03X-1220506Y324561I33750J-45000D01*
G37*
G36*
G01X-1117043Y574566D02*
G01X-1117043Y524566D01*
G03X-1192043Y509566I0J-194999D01*
G01X-1192043Y589566D01*
G03X-1117043Y574566I75000J179999D01*
G37*
G36*
G01X-1179242Y524566D02*
G01X-1179242Y574566D01*
G03X-1104242Y589566I0J194999D01*
G01X-1104242Y509566D01*
G03X-1179242Y524566I-75000J-179999D01*
G37*
G36*
G01X-932692Y-521437D02*
G01X-932692Y-551437D01*
G03X-977692Y-573936I-0J-56250D01*
G01X-977692Y-498937D01*
G03X-932692Y-521437I45000J33750D01*
G37*
G36*
G01X-1160393Y-378297D02*
G01X-1160393Y-348297D01*
G03X-1115393Y-325797I-0J56250D01*
G01X-1115393Y-391464D01*
G03X-1160393Y-378297I-45000J-70319D01*
G37*
G36*
G01X-903853Y130221D02*
G01X-863498Y160576D01*
G03X-785643Y132366I77855J93326D01*
G01X-875642Y52366D01*
G03X-903853Y130221I-121537J0D01*
G37*
G36*
G01X-300431Y25180D02*
G01X-275031Y25180D01*
G03X-273730Y-12920I558752J-0D01*
G01X-301731Y-12920D01*
G03X-300431Y25180I-557452J38100D01*
G37*
G36*
G01X249556Y24392D02*
G01X274956Y24392D01*
G03X276256Y-12920I535907J-0D01*
G01X248255Y-12920D01*
G03X249556Y24392I-534607J37312D01*
G37*
G36*
G01X274956Y27994D02*
G01X249556Y27994D01*
G03X248255Y66094I-558752J0D01*
G01X276256Y66094D01*
G03X274956Y27994I557452J-38100D01*
G37*
G36*
G01X-275031Y27994D02*
G01X-300431Y27994D01*
G03X-301731Y66094I-558752J0D01*
G01X-273730Y66094D01*
G03X-275031Y27994I557452J-38100D01*
G37*
G36*
G01X244574Y-174606D02*
G01X267828Y-199023D01*
G01X260392Y-217202D01*
G01X253435Y-235195D01*
G01X246266Y-253091D01*
G01X238197Y-270978D01*
G01X202256Y-213422D01*
G01X205979Y-213200D01*
G01X209623Y-212551D01*
G01X213175Y-211504D01*
G01X216620Y-210087D01*
G01X223135Y-206258D01*
G01X229057Y-201292D01*
G01X234273Y-195417D01*
G01X238672Y-188859D01*
G01X242143Y-181846D01*
G01X244574Y-174606D01*
G37*
G36*
G01X-293303Y-199023D02*
G01X-270049Y-174606D01*
G01X-267618Y-181846D01*
G01X-264148Y-188859D01*
G01X-259748Y-195417D01*
G01X-254532Y-201292D01*
G01X-248610Y-206258D01*
G01X-242095Y-210087D01*
G01X-238650Y-211504D01*
G01X-235098Y-212551D01*
G01X-231454Y-213200D01*
G01X-227731Y-213422D01*
G01X-263672Y-270978D01*
G01X-271741Y-253091D01*
G01X-278910Y-235195D01*
G01X-285867Y-217202D01*
G01X-293303Y-199023D01*
G37*
G36*
G01X-270049Y227755D02*
G01X-293303Y252172D01*
G01X-285867Y270351D01*
G01X-278910Y288344D01*
G01X-271741Y306240D01*
G01X-263672Y324127D01*
G01X-227731Y266571D01*
G01X-231454Y266349D01*
G01X-235098Y265700D01*
G01X-238650Y264653D01*
G01X-242095Y263236D01*
G01X-248610Y259407D01*
G01X-254532Y254441D01*
G01X-259748Y248566D01*
G01X-264148Y242008D01*
G01X-267618Y234995D01*
G01X-270049Y227755D01*
G37*
G36*
G01X267828Y252172D02*
G01X244574Y227755D01*
G01X242143Y234995D01*
G01X238672Y242008D01*
G01X234273Y248566D01*
G01X229057Y254441D01*
G01X223135Y259407D01*
G01X216620Y263236D01*
G01X213175Y264653D01*
G01X209623Y265700D01*
G01X205979Y266349D01*
G01X202256Y266571D01*
G01X238197Y324127D01*
G01X246266Y306240D01*
G01X253435Y288344D01*
G01X260392Y270351D01*
G01X267828Y252172D01*
G37*
G36*
G01X-1342706Y-254737D02*
G01X-1342706Y-284737D01*
G01X-1347537Y-284706D01*
G01X-1352078Y-284968D01*
G01X-1356308Y-286052D01*
G01X-1358300Y-287067D01*
G01X-1360207Y-288487D01*
G01X-1360207Y-250987D01*
G01X-1358300Y-252406D01*
G01X-1356308Y-253421D01*
G01X-1352078Y-254505D01*
G01X-1347537Y-254767D01*
G01X-1342706Y-254737D01*
G37*
G36*
G01X-1279206Y-254737D02*
G01X-1279206Y-284737D01*
G01X-1284037Y-284706D01*
G01X-1288578Y-284968D01*
G01X-1292808Y-286052D01*
G01X-1294800Y-287067D01*
G01X-1296707Y-288487D01*
G01X-1296707Y-250987D01*
G01X-1294800Y-252406D01*
G01X-1292808Y-253421D01*
G01X-1288578Y-254505D01*
G01X-1284037Y-254767D01*
G01X-1279206Y-254737D01*
G37*
G36*
G01X-1347278Y-284737D02*
G01X-1347278Y-254737D01*
G01X-1342448Y-254767D01*
G01X-1337907Y-254505D01*
G01X-1333677Y-253421D01*
G01X-1331685Y-252406D01*
G01X-1329778Y-250987D01*
G01X-1329778Y-288487D01*
G01X-1331685Y-287067D01*
G01X-1333677Y-286052D01*
G01X-1337907Y-284968D01*
G01X-1342448Y-284706D01*
G01X-1347278Y-284737D01*
G37*
G36*
G01X-1264446Y292896D02*
G01X-1264446Y262896D01*
G01X-1269276Y262927D01*
G01X-1273817Y262664D01*
G01X-1278047Y261581D01*
G01X-1280040Y260565D01*
G01X-1281946Y259146D01*
G01X-1281946Y296646D01*
G01X-1280040Y295227D01*
G01X-1278047Y294212D01*
G01X-1273817Y293128D01*
G01X-1269276Y292866D01*
G01X-1264446Y292896D01*
G37*
G36*
G01X-1298568Y-67757D02*
G01X-1316626Y-37757D01*
G01X-1310754Y-38290D01*
G01X-1305666Y-38872D01*
G01X-1303517Y-38704D01*
G01X-1301683Y-37977D01*
G01X-1300206Y-36499D01*
G01X-1299126Y-34080D01*
G01X-1281068Y-65424D01*
G01X-1283430Y-65064D01*
G01X-1285624Y-65112D01*
G01X-1289746Y-65989D01*
G01X-1293904Y-67167D01*
G01X-1298568Y-67757D01*
G37*
G36*
G01X-1316559Y82255D02*
G01X-1298818Y112255D01*
G01X-1294227Y111691D01*
G01X-1289992Y110570D01*
G01X-1285795Y109750D01*
G01X-1283612Y109721D01*
G01X-1281318Y110089D01*
G01X-1299060Y78586D01*
G01X-1300160Y80993D01*
G01X-1301648Y82465D01*
G01X-1303485Y83191D01*
G01X-1305632Y83359D01*
G01X-1310705Y82784D01*
G01X-1316559Y82255D01*
G37*
G36*
G01X-1250506Y311932D02*
G01X-1220506Y311932D01*
G01X-1220536Y307102D01*
G01X-1220274Y302561D01*
G01X-1219190Y298331D01*
G01X-1218175Y296339D01*
G01X-1216756Y294432D01*
G01X-1254256Y294432D01*
G01X-1252837Y296339D01*
G01X-1251821Y298331D01*
G01X-1250738Y302561D01*
G01X-1250476Y307102D01*
G01X-1250506Y311932D01*
G37*
G36*
G01X-1269542Y262896D02*
G01X-1269542Y292896D01*
G01X-1264711Y292866D01*
G01X-1260171Y293128D01*
G01X-1255940Y294212D01*
G01X-1253948Y295227D01*
G01X-1252042Y296646D01*
G01X-1252042Y259146D01*
G01X-1253948Y260565D01*
G01X-1255940Y261581D01*
G01X-1260171Y262664D01*
G01X-1264711Y262927D01*
G01X-1269542Y262896D01*
G37*
G36*
G01X-1313242Y-284737D02*
G02X-1250506Y-314736I0J-80598D01*
G01X-1235506Y-269737D01*
G01X-1250506Y-224737D01*
G02X-1313242Y-254737I-62737J50598D01*
G01X-1313242Y-284737D01*
G37*
G36*
G01X364955Y11587D02*
G03X274956Y-18413I0J-150000D01*
G01X262256Y24392D01*
G01X274956Y71587D01*
G03X364955Y41587I90000J120000D01*
G01X364955Y11587D01*
G37*
G36*
G01X-390431Y11587D02*
G02X-300431Y-18413I0J-150000D01*
G01X-287731Y26044D01*
G01X-300431Y71587D01*
G02X-390431Y41587I-90000J120000D01*
G01X-390431Y11587D01*
G37*
G36*
G01X-939800Y574566D02*
G01X-939800Y524566D01*
G03X-1014243Y509566I0J-192223D01*
G01X-1014243Y589566D01*
G03X-939800Y574566I74443J177223D01*
G37*
G36*
G01X-711200Y-22639D02*
G01X-711200Y-72639D01*
G03X-785643Y-87639I0J-192223D01*
G01X-785643Y-7639D01*
G03X-711200Y-22639I74443J177223D01*
G37*
G36*
G01X-1212043Y-619839D02*
G01X-1262042Y-619839D01*
G03X-1282042Y-544839I-150625J0D01*
G01X-1192043Y-544839D01*
G03X-1212043Y-619839I130625J-75000D01*
G37*
G36*
G01X-1262042Y-585700D02*
G01X-1212043Y-585700D01*
G01X-1211806Y-592422D01*
G01X-1211183Y-598782D01*
G01X-1209292Y-609910D01*
G01X-1207402Y-618083D01*
G01X-1206542Y-622300D01*
G01X-1267543Y-622300D01*
G01X-1266683Y-618083D01*
G01X-1264792Y-609910D01*
G01X-1262902Y-598782D01*
G01X-1262279Y-592422D01*
G01X-1262042Y-585700D01*
G37*
G36*
G01X-747800Y-72639D02*
G01X-747800Y-22639D01*
G01X-741078Y-22403D01*
G01X-734718Y-21780D01*
G01X-723590Y-19889D01*
G01X-715417Y-17998D01*
G01X-711200Y-17139D01*
G01X-711200Y-78139D01*
G01X-715417Y-77280D01*
G01X-723590Y-75389D01*
G01X-734718Y-73498D01*
G01X-741078Y-72875D01*
G01X-747800Y-72639D01*
G37*
G36*
G01X-976400Y524566D02*
G01X-976400Y574566D01*
G01X-969678Y574802D01*
G01X-963318Y575425D01*
G01X-952190Y577316D01*
G01X-944017Y579207D01*
G01X-939800Y580066D01*
G01X-939800Y519066D01*
G01X-944017Y519925D01*
G01X-952190Y521816D01*
G01X-963318Y523707D01*
G01X-969678Y524330D01*
G01X-976400Y524566D01*
G37*
G36*
G01X124969Y0D02*
G03X126269Y-12920I64829J0D01*
G01X98268Y-12920D01*
G01X124969Y0D01*
G37*
G36*
G01X-619136Y610300D02*
G01X-649136Y610300D01*
G03X-671636Y655300I-56250J-0D01*
G01X-596637Y655300D01*
G03X-619136Y610300I33750J-45000D01*
G37*
G36*
G01X-649136Y621600D02*
G01X-619136Y621600D01*
G03X-596637Y576600I56250J-0D01*
G01X-671636Y576600D01*
G03X-649136Y621600I-33750J45000D01*
G37*
G36*
G01X-619136Y445200D02*
G01X-649136Y445200D01*
G03X-671636Y490200I-56250J-0D01*
G01X-596637Y490200D01*
G03X-619136Y445200I33750J-45000D01*
G37*
G36*
G01X-649136Y533400D02*
G02X-754137Y446400I-105000J19863D01*
G01X-636031Y406400D01*
G01X-514136Y446400D01*
G02X-619136Y533400I0J106862D01*
G01X-649136Y533400D01*
G37*
G36*
G01X-894242Y446400D02*
G01X-894242Y366400D01*
G03X-1014243Y369561I-119997J-2276060D01*
G01X-1014243Y449561D01*
G01X-1014243Y449561D01*
G03X-894243Y446400I120003J2276282D01*
G37*
G36*
G01X147235Y2192136D02*
G01X147235Y2162136D01*
G03X102236Y2139636I-0J-56250D01*
G01X102236Y2214636D01*
G03X147235Y2192136I45000J33750D01*
G37*
G36*
G01X147235Y-2107864D02*
G01X147235Y-2137864D01*
G03X102236Y-2160364I0J-56250D01*
G01X102236Y-2085364D01*
G03X147235Y-2107864I45000J33750D01*
G37*
G36*
G01X161676Y-2137864D02*
G01X161676Y-2107864D01*
G01X166977Y-2107211D01*
G01X172933Y-2105467D01*
G01X178599Y-2102952D01*
G01X183026Y-2099989D01*
G01X183026Y-2145739D01*
G01X178599Y-2142776D01*
G01X172933Y-2140261D01*
G01X166977Y-2138517D01*
G01X161676Y-2137864D01*
G37*
G36*
G01X148976Y2162136D02*
G01X148976Y2192136D01*
G01X154277Y2192789D01*
G01X160233Y2194533D01*
G01X165899Y2197048D01*
G01X170326Y2200011D01*
G01X170326Y2154261D01*
G01X165899Y2157224D01*
G01X160233Y2159739D01*
G01X154277Y2161483D01*
G01X148976Y2162136D01*
G37*
G36*
G01X-398140Y548400D02*
G01X-398140Y518400D01*
G03X-443140Y495900I0J-56250D01*
G01X-443140Y570900D01*
G03X-398140Y548400I45000J33750D01*
G37*
G36*
G01X-397124Y518400D02*
G01X-397124Y548400D01*
G01X-391823Y549053D01*
G01X-385867Y550797D01*
G01X-380201Y553312D01*
G01X-375774Y556275D01*
G01X-375774Y510525D01*
G01X-380201Y513488D01*
G01X-385867Y516003D01*
G01X-391823Y517747D01*
G01X-397124Y518400D01*
G37*
G36*
G01X-398140Y713500D02*
G01X-398140Y683500D01*
G03X-443140Y661000I-0J-56250D01*
G01X-443140Y736000D01*
G03X-398140Y713500I45000J33750D01*
G37*
G36*
G01X-397124Y683500D02*
G01X-397124Y713500D01*
G01X-391823Y714153D01*
G01X-385867Y715897D01*
G01X-380201Y718412D01*
G01X-375774Y721375D01*
G01X-375774Y675625D01*
G01X-380201Y678588D01*
G01X-385867Y681103D01*
G01X-391823Y682847D01*
G01X-397124Y683500D01*
G37*
G36*
G01X-182657Y2162110D02*
G01X-182657Y2192110D01*
G03X-137657Y2214611I-0J56250D01*
G01X-137657Y2139611D01*
G03X-182657Y2162110I-45000J-33750D01*
G37*
G36*
G01X-182657Y-2137889D02*
G01X-182657Y-2107889D01*
G03X-137657Y-2085390I0J56250D01*
G01X-137657Y-2160389D01*
G03X-182657Y-2137889I-45000J-33750D01*
G37*
G36*
G01X-161676Y-2107889D02*
G01X-161676Y-2137889D01*
G01X-166977Y-2138542D01*
G01X-172933Y-2140287D01*
G01X-178599Y-2142801D01*
G01X-183026Y-2145765D01*
G01X-183026Y-2100014D01*
G01X-178599Y-2102978D01*
G01X-172933Y-2105492D01*
G01X-166977Y-2107237D01*
G01X-161676Y-2107889D01*
G37*
G36*
G01X-161676Y2192110D02*
G01X-161676Y2162110D01*
G01X-166977Y2161458D01*
G01X-172933Y2159713D01*
G01X-178599Y2157199D01*
G01X-183026Y2154235D01*
G01X-183026Y2199986D01*
G01X-178599Y2197022D01*
G01X-172933Y2194508D01*
G01X-166977Y2192763D01*
G01X-161676Y2192110D01*
G37*
G04 TearDrop End*

G04 Pad Start*
G54D11*
G01X-2298700Y355600D03*
G01X-2296468Y-316845D03*
G54D12*
G01X-1840140Y22363D03*
G01X-1980145Y22363D03*
G01X-1840140Y365263D03*
G01X-1980145Y365263D03*
G01X-1980145Y192549D03*
G01X-1840140Y192549D03*
G54D13*
G01X-1833942Y-161634D03*
G01X-1833942Y-301639D03*
G01X-1630742Y104761D03*
G01X-1630742Y244766D03*
G01X-1630742Y-212739D03*
G01X-1630742Y-72734D03*
G01X-1414842Y-364834D03*
G01X-1414842Y-504839D03*
G54D14*
G01X-1368119Y97255D03*
G01X-1368119Y47243D03*
G01X-1368119Y-2744D03*
G01X-1368119Y-52757D03*
G54D16*
G01X-1285518Y-133859D03*
G01X-1235506Y-133859D03*
G01X-1185519Y-133859D03*
G01X-1135506Y-133859D03*
G54D14*
G01X-1055166Y-52757D03*
G01X-1055166Y-2744D03*
G01X-1055166Y47243D03*
G01X-1055166Y97255D03*
G54D16*
G01X-1135506Y178586D03*
G01X-1185519Y178586D03*
G01X-1235506Y178586D03*
G01X-1285518Y178586D03*
G54D17*
G01X-1210512Y22249D03*
G54D13*
G01X-1237042Y-364834D03*
G01X-1237042Y-504839D03*
G01X-1237042Y409561D03*
G01X-1237042Y549566D03*
G01X-1059242Y549566D03*
G01X-1059242Y409561D03*
G54D18*
G01X-1046542Y-534836D03*
G01X-1046542Y-334837D03*
G54D13*
G01X-830642Y-47639D03*
G01X-830642Y92366D03*
G54D19*
G01X-287731Y-65920D03*
G01X-237743Y-65920D03*
G01X-187731Y-65920D03*
G01X-137744Y-65920D03*
G01X-87731Y-65920D03*
G01X-37744Y-65920D03*
G01X12269Y-65920D03*
G01X62256Y-65920D03*
G01X112269Y-65920D03*
G01X162256Y-65920D03*
G01X212268Y-65920D03*
G01X262256Y-65920D03*
G01X262256Y119094D03*
G01X212268Y119094D03*
G01X162256Y119094D03*
G01X112269Y119094D03*
G01X62256Y119094D03*
G01X12269Y119094D03*
G01X-37744Y119094D03*
G01X-87731Y119094D03*
G01X-137744Y119094D03*
G01X-187731Y119094D03*
G01X-237743Y119094D03*
G01X-287731Y119094D03*
G54D20*
G01X162256Y-253422D03*
G01X-187731Y-253422D03*
G01X-187731Y306571D03*
G01X162256Y306571D03*
G54D21*
G01X388265Y26587D03*
G01X-413740Y26587D03*
G54D22*
G01X-97657Y-2122889D03*
G01X62236Y-2122864D03*
G01X-97657Y2177110D03*
G01X62236Y2177136D03*
G54D23*
G01X-483464Y698500D03*
G01X-634136Y698500D03*
G01X-483464Y533400D03*
G01X-634136Y533400D03*
G04 Pad End*

G04 Via Start*
G54D24*
G01X-1376742Y-269737D03*
G01X-1313242Y-269737D03*
G01X-1298482Y277896D03*
G01X-1275142Y-41137D03*
G01X-1275142Y22363D03*
G01X-1275142Y85863D03*
G01X-1235506Y277896D03*
G01X-1210512Y22249D03*
G01X-1149282Y22363D03*
G01X-1148142Y-41137D03*
G01X-1148142Y85863D03*
G54D25*
G01X-1237042Y-622300D03*
G01X-711200Y-47639D03*
G01X-939800Y549566D03*
G01X203200Y-2122864D03*
G01X190500Y2177136D03*
G01X-355600Y698500D03*
G01X-355600Y533400D03*
G01X-203200Y-2122889D03*
G01X-203200Y2177110D03*
G04 Via End*

G04 Track Start*
G54D24*
G01X-1840140Y22363D02*
G01X-1840140Y192549D01*
G01X-1840140Y365263D02*
G01X-1840140Y192549D01*
G01X-1833942Y16166D02*
G01X-1840140Y22363D01*
G01X-1833942Y-161634D02*
G01X-1833942Y16166D01*
G54D26*
G01X-1630742Y111263D02*
G01X-1566722Y47243D01*
G01X-1630742Y-72734D02*
G01X-1560753Y-2744D01*
G01X-1566722Y47243D02*
G01X-1368119Y47243D01*
G01X-1560753Y-2744D02*
G01X-1368119Y-2744D01*
G01X-1313242Y-269737D02*
G01X-1376742Y-269737D01*
G01X-1286534Y97255D02*
G01X-1368119Y97255D01*
G01X-1368119Y-52757D02*
G01X-1285518Y-52757D01*
G01X-1237042Y-364834D02*
G01X-1414842Y-364834D01*
G01X-1275142Y85863D02*
G01X-1286534Y97255D01*
G01X-1235506Y-269737D02*
G01X-1313242Y-269737D01*
G01X-1235506Y277896D02*
G01X-1298482Y277896D01*
G01X-1285518Y-52757D02*
G01X-1210512Y22249D01*
G01X-1275142Y85863D02*
G01X-1211528Y22249D01*
G01X-1235506Y408024D02*
G01X-1237042Y409561D01*
G01X-1235506Y-363297D02*
G01X-1237042Y-364834D01*
G01X-1235506Y178586D02*
G01X-1235506Y277896D01*
G01X-1235506Y-269737D02*
G01X-1235506Y-133859D01*
G01X-1235506Y-269737D02*
G01X-1235506Y-363297D01*
G01X-1235506Y277896D02*
G01X-1235506Y408024D01*
G01X-1211528Y22249D02*
G01X-1210512Y22249D01*
G01X-1185519Y-133859D02*
G01X-1185519Y-194260D01*
G01X-1185519Y178586D02*
G01X-1185519Y233586D01*
G01X-1185519Y-194260D02*
G01X-1160842Y-218937D01*
G01X-1185519Y233586D02*
G01X-1142741Y276363D01*
G01X-1235506Y-363297D02*
G01X-1075003Y-363297D01*
G01X-1142741Y276363D02*
G01X-1122742Y276363D01*
G54D27*
G01X-1059366Y359113D02*
G01X-1124973Y293505D01*
G54D26*
G01X-1075003Y-363297D02*
G01X-1046542Y-334837D01*
G54D27*
G01X-1059366Y408628D02*
G01X-1059366Y359113D01*
G54D26*
G01X-1160842Y-218937D02*
G01X-932242Y-218937D01*
G01X-1044942Y-536437D02*
G01X-1046542Y-534836D01*
G54D24*
G01X-1122958Y178586D02*
G01X-916863Y178586D01*
G54D26*
G01X-932242Y-536437D02*
G01X-1044942Y-536437D01*
G01X-906842Y-511037D02*
G01X-932242Y-536437D01*
G01X-932242Y-218937D02*
G01X-906842Y-244337D01*
G01X-906842Y-511037D01*
G54D24*
G01X-916863Y178586D02*
G01X-830642Y92366D01*
G54D28*
G01X-2294609Y357649D02*
G01X-2105728Y357649D01*
G01X-2062542Y314463D01*
G01X-2294698Y-315418D02*
G01X-2037142Y-315418D01*
G54D26*
G01X-287731Y119094D02*
G01X-287731Y206572D01*
G01X262256Y119094D02*
G01X262256Y206572D01*
G01X262256Y-65920D02*
G01X262256Y-153423D01*
G01X-287731Y-65920D02*
G01X-287731Y-153423D01*
G01X388265Y26587D02*
G01X264451Y26587D01*
G54D29*
G01X262256Y119094D02*
G01X262256Y24392D01*
G01X262256Y-65920D01*
G54D26*
G01X-413740Y26587D02*
G01X-288274Y26587D01*
G54D29*
G01X-287731Y119094D02*
G01X-287731Y26044D01*
G01X-287731Y-65920D01*
G54D24*
G01X-1237042Y549566D02*
G01X-1059242Y549566D01*
G01X-1414842Y-504839D02*
G01X-1237042Y-504839D01*
G01X-1059242Y549566D02*
G01X-939800Y549566D01*
G01X-830642Y-47639D02*
G01X-711200Y-47639D01*
G01X-1237042Y-504839D02*
G01X-1237042Y-622300D01*
G54D26*
G01X112269Y119094D02*
G01X112269Y190500D01*
G01X-137731Y119094D02*
G01X-137731Y190500D01*
G01X-137731Y-65907D02*
G01X-137731Y5499D01*
G01X112269Y-65907D02*
G01X112269Y5499D01*
G01X-137758Y-65923D02*
G01X-137758Y-137329D01*
G01X112269Y-65920D02*
G01X112269Y-137325D01*
G01X112255Y119090D02*
G01X112255Y47684D01*
G01X-137731Y119094D02*
G01X-137731Y47688D01*
G54D27*
G01X-12700Y241300D02*
G01X-12700Y292100D01*
G54D26*
G01X-634136Y408295D02*
G01X-636031Y406400D01*
G01X-634136Y698500D02*
G01X-634136Y533400D01*
G01X-634136Y408295D01*
G54D27*
G01X-127000Y406400D02*
G01X-636031Y406400D01*
G01X-1057138Y406400D01*
G54D26*
G01X62236Y2177136D02*
G01X190500Y2177136D01*
G01X62236Y-2122864D02*
G01X203200Y-2122864D01*
G01X-483464Y533400D02*
G01X-355600Y533400D01*
G01X-483464Y698500D02*
G01X-351657Y698500D01*
G01X-97657Y2177110D02*
G01X-203200Y2177110D01*
G01X-97657Y-2122889D02*
G01X-203200Y-2122889D01*
G54D27*
G01X-1057138Y406400D02*
G01X-1059366Y408628D01*
G54D26*
G01X-287731Y206572D02*
G02X-187731Y306571I100000J0D01*
G01X262256Y206572D02*
G03X162256Y306571I-100000J0D01*
G01X262256Y-153423D02*
G02X162256Y-253422I-100000J0D01*
G01X-287731Y-153423D02*
G03X-187731Y-253422I100000J0D01*
G01X264451Y26587D02*
G01X262256Y24392D01*
G01X-288274Y26587D02*
G02X-287731Y26044I0J-543D01*
G54D27*
G01X-12700Y292100D02*
G03X-127000Y406400I-114300J0D01*
G04 Track End*

M02*

