G04 Layer: TopPasteMaskLayer*
G04 EasyEDA Pro v2.2.42.2, 2025-09-27 19:40:42*
G04 Gerber Generator version 0.3*
G04 Scale: 100 percent, Rotated: No, Reflected: No*
G04 Dimensions in millimeters*
G04 Leading zeros omitted, absolute positions, 4 integers and 5 decimals*
G04 Generated by one-click*
%FSLAX45Y45*%
%MOMM*%
%ADD10O,2.5X1.6*%
%ADD11R,0.8X0.9*%
%ADD12R,0.9X0.8*%
%ADD13R,0.8X0.8*%
%ADD14C,0.8054*%
G75*


G04 PolygonModel Start*
G36*
G01X-1284363Y218538D02*
G01X-1285132Y218581D01*
G01X-1285904Y218581D01*
G01X-1286674Y218538D01*
G01X-1287441Y218454D01*
G01X-1288203Y218327D01*
G01X-1288955Y218157D01*
G01X-1289697Y217949D01*
G01X-1290428Y217697D01*
G01X-1291142Y217407D01*
G01X-1291840Y217077D01*
G01X-1292519Y216712D01*
G01X-1293176Y216305D01*
G01X-1293809Y215866D01*
G01X-1294419Y215393D01*
G01X-1295000Y214885D01*
G01X-1295554Y214347D01*
G01X-1296077Y213780D01*
G01X-1296567Y213186D01*
G01X-1297025Y212564D01*
G01X-1297446Y211916D01*
G01X-1297832Y211248D01*
G01X-1298180Y210560D01*
G01X-1298490Y209854D01*
G01X-1298759Y209132D01*
G01X-1298991Y208396D01*
G01X-1299181Y207646D01*
G01X-1299328Y206889D01*
G01X-1299435Y206125D01*
G01X-1299499Y205358D01*
G01X-1299519Y204586D01*
G01X-1299519Y152587D01*
G01X-1299499Y151815D01*
G01X-1299435Y151047D01*
G01X-1299328Y150283D01*
G01X-1299181Y149526D01*
G01X-1298991Y148777D01*
G01X-1298759Y148040D01*
G01X-1298490Y147319D01*
G01X-1298180Y146613D01*
G01X-1297832Y145924D01*
G01X-1297446Y145256D01*
G01X-1297025Y144609D01*
G01X-1296567Y143986D01*
G01X-1296077Y143392D01*
G01X-1295554Y142825D01*
G01X-1295000Y142287D01*
G01X-1294419Y141779D01*
G01X-1293809Y141307D01*
G01X-1293176Y140867D01*
G01X-1292519Y140461D01*
G01X-1291840Y140095D01*
G01X-1291142Y139765D01*
G01X-1290428Y139475D01*
G01X-1289697Y139224D01*
G01X-1288955Y139015D01*
G01X-1288203Y138845D01*
G01X-1287441Y138718D01*
G01X-1286674Y138634D01*
G01X-1285904Y138591D01*
G01X-1285132Y138591D01*
G01X-1284363Y138634D01*
G01X-1283596Y138718D01*
G01X-1282834Y138845D01*
G01X-1282082Y139015D01*
G01X-1281340Y139224D01*
G01X-1280609Y139475D01*
G01X-1279895Y139765D01*
G01X-1279196Y140095D01*
G01X-1278518Y140461D01*
G01X-1277860Y140867D01*
G01X-1277228Y141307D01*
G01X-1276618Y141779D01*
G01X-1276037Y142287D01*
G01X-1275483Y142825D01*
G01X-1274960Y143392D01*
G01X-1274469Y143986D01*
G01X-1274012Y144609D01*
G01X-1273591Y145256D01*
G01X-1273204Y145924D01*
G01X-1272856Y146613D01*
G01X-1272547Y147319D01*
G01X-1272277Y148040D01*
G01X-1272046Y148777D01*
G01X-1271856Y149526D01*
G01X-1271708Y150283D01*
G01X-1271602Y151047D01*
G01X-1271538Y151815D01*
G01X-1271518Y152587D01*
G01X-1271518Y204586D01*
G01X-1271538Y205358D01*
G01X-1271602Y206125D01*
G01X-1271708Y206889D01*
G01X-1271856Y207646D01*
G01X-1272046Y208396D01*
G01X-1272277Y209132D01*
G01X-1272547Y209854D01*
G01X-1272856Y210560D01*
G01X-1273204Y211248D01*
G01X-1273591Y211916D01*
G01X-1274012Y212564D01*
G01X-1274469Y213186D01*
G01X-1274960Y213780D01*
G01X-1275483Y214347D01*
G01X-1276037Y214885D01*
G01X-1276618Y215393D01*
G01X-1277228Y215866D01*
G01X-1277860Y216305D01*
G01X-1278518Y216712D01*
G01X-1279196Y217077D01*
G01X-1279895Y217407D01*
G01X-1280609Y217697D01*
G01X-1281340Y217949D01*
G01X-1282082Y218157D01*
G01X-1282834Y218327D01*
G01X-1283596Y218454D01*
G01X-1284363Y218538D01*
G37*
G36*
G01X-1184363Y218538D02*
G01X-1185133Y218581D01*
G01X-1185905Y218581D01*
G01X-1186674Y218538D01*
G01X-1187441Y218454D01*
G01X-1188203Y218327D01*
G01X-1188955Y218157D01*
G01X-1189697Y217949D01*
G01X-1190428Y217697D01*
G01X-1191142Y217407D01*
G01X-1191841Y217077D01*
G01X-1192519Y216712D01*
G01X-1193177Y216305D01*
G01X-1193809Y215866D01*
G01X-1194419Y215393D01*
G01X-1195000Y214885D01*
G01X-1195554Y214347D01*
G01X-1196077Y213780D01*
G01X-1196568Y213186D01*
G01X-1197025Y212564D01*
G01X-1197446Y211916D01*
G01X-1197833Y211248D01*
G01X-1198180Y210560D01*
G01X-1198490Y209854D01*
G01X-1198760Y209132D01*
G01X-1198991Y208396D01*
G01X-1199181Y207646D01*
G01X-1199329Y206889D01*
G01X-1199435Y206125D01*
G01X-1199499Y205358D01*
G01X-1199519Y204586D01*
G01X-1199519Y152587D01*
G01X-1199499Y151815D01*
G01X-1199435Y151047D01*
G01X-1199329Y150283D01*
G01X-1199181Y149526D01*
G01X-1198991Y148777D01*
G01X-1198760Y148040D01*
G01X-1198490Y147319D01*
G01X-1198180Y146613D01*
G01X-1197833Y145924D01*
G01X-1197446Y145256D01*
G01X-1197025Y144609D01*
G01X-1196568Y143986D01*
G01X-1196077Y143392D01*
G01X-1195554Y142825D01*
G01X-1195000Y142287D01*
G01X-1194419Y141779D01*
G01X-1193809Y141307D01*
G01X-1193177Y140867D01*
G01X-1192519Y140461D01*
G01X-1191841Y140095D01*
G01X-1191142Y139765D01*
G01X-1190428Y139475D01*
G01X-1189697Y139224D01*
G01X-1188955Y139015D01*
G01X-1188203Y138845D01*
G01X-1187441Y138718D01*
G01X-1186674Y138634D01*
G01X-1185905Y138591D01*
G01X-1185133Y138591D01*
G01X-1184363Y138634D01*
G01X-1183596Y138718D01*
G01X-1182834Y138845D01*
G01X-1182082Y139015D01*
G01X-1181340Y139224D01*
G01X-1180609Y139475D01*
G01X-1179895Y139765D01*
G01X-1179197Y140095D01*
G01X-1178518Y140461D01*
G01X-1177860Y140867D01*
G01X-1177228Y141307D01*
G01X-1176618Y141779D01*
G01X-1176037Y142287D01*
G01X-1175483Y142825D01*
G01X-1174960Y143392D01*
G01X-1174470Y143986D01*
G01X-1174012Y144609D01*
G01X-1173591Y145256D01*
G01X-1173205Y145924D01*
G01X-1172857Y146613D01*
G01X-1172547Y147319D01*
G01X-1172278Y148040D01*
G01X-1172046Y148777D01*
G01X-1171856Y149526D01*
G01X-1171709Y150283D01*
G01X-1171602Y151047D01*
G01X-1171538Y151815D01*
G01X-1171518Y152587D01*
G01X-1171518Y204586D01*
G01X-1171538Y205358D01*
G01X-1171602Y206125D01*
G01X-1171709Y206889D01*
G01X-1171856Y207646D01*
G01X-1172046Y208396D01*
G01X-1172278Y209132D01*
G01X-1172547Y209854D01*
G01X-1172857Y210560D01*
G01X-1173205Y211248D01*
G01X-1173591Y211916D01*
G01X-1174012Y212564D01*
G01X-1174470Y213186D01*
G01X-1174960Y213780D01*
G01X-1175483Y214347D01*
G01X-1176037Y214885D01*
G01X-1176618Y215393D01*
G01X-1177228Y215866D01*
G01X-1177860Y216305D01*
G01X-1178518Y216712D01*
G01X-1179197Y217077D01*
G01X-1179895Y217407D01*
G01X-1180609Y217697D01*
G01X-1181340Y217949D01*
G01X-1182082Y218157D01*
G01X-1182834Y218327D01*
G01X-1183596Y218454D01*
G01X-1184363Y218538D01*
G37*
G36*
G01X-1234350Y218538D02*
G01X-1235120Y218581D01*
G01X-1235892Y218581D01*
G01X-1236661Y218538D01*
G01X-1237429Y218454D01*
G01X-1238191Y218327D01*
G01X-1238942Y218157D01*
G01X-1239684Y217949D01*
G01X-1240416Y217697D01*
G01X-1241129Y217407D01*
G01X-1241828Y217077D01*
G01X-1242506Y216712D01*
G01X-1243164Y216305D01*
G01X-1243796Y215866D01*
G01X-1244406Y215393D01*
G01X-1244988Y214885D01*
G01X-1245541Y214347D01*
G01X-1246065Y213780D01*
G01X-1246555Y213186D01*
G01X-1247012Y212564D01*
G01X-1247434Y211916D01*
G01X-1247820Y211248D01*
G01X-1248168Y210560D01*
G01X-1248478Y209854D01*
G01X-1248747Y209132D01*
G01X-1248978Y208396D01*
G01X-1249168Y207646D01*
G01X-1249316Y206889D01*
G01X-1249422Y206125D01*
G01X-1249486Y205358D01*
G01X-1249506Y204586D01*
G01X-1249506Y152587D01*
G01X-1249486Y151815D01*
G01X-1249422Y151047D01*
G01X-1249316Y150283D01*
G01X-1249168Y149526D01*
G01X-1248978Y148777D01*
G01X-1248747Y148040D01*
G01X-1248478Y147319D01*
G01X-1248168Y146613D01*
G01X-1247820Y145924D01*
G01X-1247434Y145256D01*
G01X-1247012Y144609D01*
G01X-1246555Y143986D01*
G01X-1246065Y143392D01*
G01X-1245541Y142825D01*
G01X-1244988Y142287D01*
G01X-1244406Y141779D01*
G01X-1243796Y141307D01*
G01X-1243164Y140867D01*
G01X-1242506Y140461D01*
G01X-1241828Y140095D01*
G01X-1241129Y139765D01*
G01X-1240416Y139475D01*
G01X-1239684Y139224D01*
G01X-1238942Y139015D01*
G01X-1238191Y138845D01*
G01X-1237429Y138718D01*
G01X-1236661Y138634D01*
G01X-1235892Y138591D01*
G01X-1235120Y138591D01*
G01X-1234350Y138634D01*
G01X-1233583Y138718D01*
G01X-1232821Y138845D01*
G01X-1232069Y139015D01*
G01X-1231327Y139224D01*
G01X-1230596Y139475D01*
G01X-1229882Y139765D01*
G01X-1229184Y140095D01*
G01X-1228506Y140461D01*
G01X-1227848Y140867D01*
G01X-1227215Y141307D01*
G01X-1226606Y141779D01*
G01X-1226024Y142287D01*
G01X-1225470Y142825D01*
G01X-1224947Y143392D01*
G01X-1224457Y143986D01*
G01X-1224000Y144609D01*
G01X-1223578Y145256D01*
G01X-1223192Y145924D01*
G01X-1222844Y146613D01*
G01X-1222534Y147319D01*
G01X-1222265Y148040D01*
G01X-1222034Y148777D01*
G01X-1221843Y149526D01*
G01X-1221696Y150283D01*
G01X-1221589Y151047D01*
G01X-1221526Y151815D01*
G01X-1221505Y152587D01*
G01X-1221505Y204586D01*
G01X-1221526Y205358D01*
G01X-1221589Y206125D01*
G01X-1221696Y206889D01*
G01X-1221843Y207646D01*
G01X-1222034Y208396D01*
G01X-1222265Y209132D01*
G01X-1222534Y209854D01*
G01X-1222844Y210560D01*
G01X-1223192Y211248D01*
G01X-1223578Y211916D01*
G01X-1224000Y212564D01*
G01X-1224457Y213186D01*
G01X-1224947Y213780D01*
G01X-1225470Y214347D01*
G01X-1226024Y214885D01*
G01X-1226606Y215393D01*
G01X-1227215Y215866D01*
G01X-1227848Y216305D01*
G01X-1228506Y216712D01*
G01X-1229184Y217077D01*
G01X-1229882Y217407D01*
G01X-1230596Y217697D01*
G01X-1231327Y217949D01*
G01X-1232069Y218157D01*
G01X-1232821Y218327D01*
G01X-1233583Y218454D01*
G01X-1234350Y218538D01*
G37*
G36*
G01X-1134350Y218538D02*
G01X-1135120Y218581D01*
G01X-1135892Y218581D01*
G01X-1136662Y218538D01*
G01X-1137429Y218454D01*
G01X-1138191Y218327D01*
G01X-1138943Y218157D01*
G01X-1139684Y217949D01*
G01X-1140416Y217697D01*
G01X-1141130Y217407D01*
G01X-1141828Y217077D01*
G01X-1142506Y216712D01*
G01X-1143164Y216305D01*
G01X-1143797Y215866D01*
G01X-1144406Y215393D01*
G01X-1144988Y214885D01*
G01X-1145542Y214347D01*
G01X-1146065Y213780D01*
G01X-1146555Y213186D01*
G01X-1147012Y212564D01*
G01X-1147434Y211916D01*
G01X-1147820Y211248D01*
G01X-1148168Y210560D01*
G01X-1148478Y209854D01*
G01X-1148747Y209132D01*
G01X-1148978Y208396D01*
G01X-1149169Y207646D01*
G01X-1149316Y206889D01*
G01X-1149423Y206125D01*
G01X-1149486Y205358D01*
G01X-1149506Y204586D01*
G01X-1149506Y152587D01*
G01X-1149486Y151815D01*
G01X-1149423Y151047D01*
G01X-1149316Y150283D01*
G01X-1149169Y149526D01*
G01X-1148978Y148777D01*
G01X-1148747Y148040D01*
G01X-1148478Y147319D01*
G01X-1148168Y146613D01*
G01X-1147820Y145924D01*
G01X-1147434Y145256D01*
G01X-1147012Y144609D01*
G01X-1146555Y143986D01*
G01X-1146065Y143392D01*
G01X-1145542Y142825D01*
G01X-1144988Y142287D01*
G01X-1144406Y141779D01*
G01X-1143797Y141307D01*
G01X-1143164Y140867D01*
G01X-1142506Y140461D01*
G01X-1141828Y140095D01*
G01X-1141130Y139765D01*
G01X-1140416Y139475D01*
G01X-1139684Y139224D01*
G01X-1138943Y139015D01*
G01X-1138191Y138845D01*
G01X-1137429Y138718D01*
G01X-1136662Y138634D01*
G01X-1135892Y138591D01*
G01X-1135120Y138591D01*
G01X-1134350Y138634D01*
G01X-1133583Y138718D01*
G01X-1132821Y138845D01*
G01X-1132069Y139015D01*
G01X-1131328Y139224D01*
G01X-1130596Y139475D01*
G01X-1129882Y139765D01*
G01X-1129184Y140095D01*
G01X-1128506Y140461D01*
G01X-1127848Y140867D01*
G01X-1127215Y141307D01*
G01X-1126606Y141779D01*
G01X-1126024Y142287D01*
G01X-1125470Y142825D01*
G01X-1124947Y143392D01*
G01X-1124457Y143986D01*
G01X-1124000Y144609D01*
G01X-1123578Y145256D01*
G01X-1123192Y145924D01*
G01X-1122844Y146613D01*
G01X-1122534Y147319D01*
G01X-1122265Y148040D01*
G01X-1122034Y148777D01*
G01X-1121843Y149526D01*
G01X-1121696Y150283D01*
G01X-1121589Y151047D01*
G01X-1121526Y151815D01*
G01X-1121506Y152587D01*
G01X-1121506Y204586D01*
G01X-1121526Y205358D01*
G01X-1121589Y206125D01*
G01X-1121696Y206889D01*
G01X-1121843Y207646D01*
G01X-1122034Y208396D01*
G01X-1122265Y209132D01*
G01X-1122534Y209854D01*
G01X-1122844Y210560D01*
G01X-1123192Y211248D01*
G01X-1123578Y211916D01*
G01X-1124000Y212564D01*
G01X-1124457Y213186D01*
G01X-1124947Y213780D01*
G01X-1125470Y214347D01*
G01X-1126024Y214885D01*
G01X-1126606Y215393D01*
G01X-1127215Y215866D01*
G01X-1127848Y216305D01*
G01X-1128506Y216712D01*
G01X-1129184Y217077D01*
G01X-1129882Y217407D01*
G01X-1130596Y217697D01*
G01X-1131328Y217949D01*
G01X-1132069Y218157D01*
G01X-1132821Y218327D01*
G01X-1133583Y218454D01*
G01X-1134350Y218538D01*
G37*
G36*
G01X-1287642Y98363D02*
G01X-1287642Y-53636D01*
G01X-1135643Y-53636D01*
G01X-1135643Y98363D01*
G01X-1287642Y98363D01*
G37*
G36*
G01X-1081937Y111235D02*
G01X-1082704Y111172D01*
G01X-1083469Y111065D01*
G01X-1084226Y110918D01*
G01X-1084975Y110727D01*
G01X-1085712Y110496D01*
G01X-1086433Y110227D01*
G01X-1087139Y109917D01*
G01X-1087828Y109569D01*
G01X-1088496Y109183D01*
G01X-1089143Y108762D01*
G01X-1089766Y108304D01*
G01X-1090360Y107814D01*
G01X-1090926Y107291D01*
G01X-1091465Y106737D01*
G01X-1091973Y106155D01*
G01X-1092445Y105546D01*
G01X-1092885Y104913D01*
G01X-1093291Y104256D01*
G01X-1093657Y103577D01*
G01X-1093987Y102879D01*
G01X-1094277Y102165D01*
G01X-1094528Y101434D01*
G01X-1094736Y100692D01*
G01X-1094907Y99940D01*
G01X-1095034Y99178D01*
G01X-1095117Y98411D01*
G01X-1095161Y97641D01*
G01X-1095161Y96869D01*
G01X-1095117Y96100D01*
G01X-1095034Y95333D01*
G01X-1094907Y94571D01*
G01X-1094736Y93819D01*
G01X-1094528Y93077D01*
G01X-1094277Y92346D01*
G01X-1093987Y91632D01*
G01X-1093657Y90933D01*
G01X-1093291Y90255D01*
G01X-1092885Y89597D01*
G01X-1092445Y88965D01*
G01X-1091973Y88355D01*
G01X-1091465Y87774D01*
G01X-1090926Y87220D01*
G01X-1090360Y86697D01*
G01X-1089766Y86206D01*
G01X-1089143Y85749D01*
G01X-1088496Y85327D01*
G01X-1087828Y84941D01*
G01X-1087139Y84593D01*
G01X-1086433Y84284D01*
G01X-1085712Y84014D01*
G01X-1084975Y83783D01*
G01X-1084226Y83593D01*
G01X-1083469Y83445D01*
G01X-1082704Y83339D01*
G01X-1081937Y83275D01*
G01X-1081165Y83255D01*
G01X-1029166Y83255D01*
G01X-1028394Y83275D01*
G01X-1027627Y83339D01*
G01X-1026863Y83445D01*
G01X-1026106Y83593D01*
G01X-1025356Y83783D01*
G01X-1024620Y84014D01*
G01X-1023898Y84284D01*
G01X-1023192Y84593D01*
G01X-1022504Y84941D01*
G01X-1021836Y85327D01*
G01X-1021188Y85749D01*
G01X-1020566Y86206D01*
G01X-1019972Y86697D01*
G01X-1019405Y87220D01*
G01X-1018867Y87774D01*
G01X-1018359Y88355D01*
G01X-1017886Y88965D01*
G01X-1017447Y89597D01*
G01X-1017040Y90255D01*
G01X-1016675Y90933D01*
G01X-1016344Y91632D01*
G01X-1016055Y92346D01*
G01X-1015803Y93077D01*
G01X-1015595Y93819D01*
G01X-1015425Y94571D01*
G01X-1015298Y95333D01*
G01X-1015214Y96100D01*
G01X-1015171Y96869D01*
G01X-1015171Y97641D01*
G01X-1015214Y98411D01*
G01X-1015298Y99178D01*
G01X-1015425Y99940D01*
G01X-1015595Y100692D01*
G01X-1015803Y101434D01*
G01X-1016055Y102165D01*
G01X-1016344Y102879D01*
G01X-1016675Y103577D01*
G01X-1017040Y104256D01*
G01X-1017447Y104913D01*
G01X-1017886Y105546D01*
G01X-1018359Y106155D01*
G01X-1018867Y106737D01*
G01X-1019405Y107291D01*
G01X-1019972Y107814D01*
G01X-1020566Y108304D01*
G01X-1021188Y108762D01*
G01X-1021836Y109183D01*
G01X-1022504Y109569D01*
G01X-1023192Y109917D01*
G01X-1023898Y110227D01*
G01X-1024620Y110496D01*
G01X-1025356Y110727D01*
G01X-1026106Y110918D01*
G01X-1026863Y111065D01*
G01X-1027627Y111172D01*
G01X-1028394Y111235D01*
G01X-1029166Y111256D01*
G01X-1081165Y111256D01*
G01X-1081937Y111235D01*
G37*
G36*
G01X-1394891Y111235D02*
G01X-1395658Y111172D01*
G01X-1396422Y111065D01*
G01X-1397179Y110918D01*
G01X-1397929Y110727D01*
G01X-1398665Y110496D01*
G01X-1399387Y110227D01*
G01X-1400093Y109917D01*
G01X-1400781Y109569D01*
G01X-1401449Y109183D01*
G01X-1402097Y108762D01*
G01X-1402719Y108304D01*
G01X-1403313Y107814D01*
G01X-1403880Y107291D01*
G01X-1404418Y106737D01*
G01X-1404926Y106155D01*
G01X-1405399Y105546D01*
G01X-1405838Y104913D01*
G01X-1406245Y104256D01*
G01X-1406610Y103577D01*
G01X-1406941Y102879D01*
G01X-1407230Y102165D01*
G01X-1407482Y101434D01*
G01X-1407690Y100692D01*
G01X-1407860Y99940D01*
G01X-1407987Y99178D01*
G01X-1408071Y98411D01*
G01X-1408114Y97641D01*
G01X-1408114Y96869D01*
G01X-1408071Y96100D01*
G01X-1407987Y95333D01*
G01X-1407860Y94571D01*
G01X-1407690Y93819D01*
G01X-1407482Y93077D01*
G01X-1407230Y92346D01*
G01X-1406941Y91632D01*
G01X-1406610Y90933D01*
G01X-1406245Y90255D01*
G01X-1405838Y89597D01*
G01X-1405399Y88965D01*
G01X-1404926Y88355D01*
G01X-1404418Y87774D01*
G01X-1403880Y87220D01*
G01X-1403313Y86697D01*
G01X-1402719Y86206D01*
G01X-1402097Y85749D01*
G01X-1401449Y85327D01*
G01X-1400781Y84941D01*
G01X-1400093Y84593D01*
G01X-1399387Y84284D01*
G01X-1398665Y84014D01*
G01X-1397929Y83783D01*
G01X-1397179Y83593D01*
G01X-1396422Y83445D01*
G01X-1395658Y83339D01*
G01X-1394891Y83275D01*
G01X-1394119Y83255D01*
G01X-1342120Y83255D01*
G01X-1341348Y83275D01*
G01X-1340581Y83339D01*
G01X-1339816Y83445D01*
G01X-1339059Y83593D01*
G01X-1338310Y83783D01*
G01X-1337573Y84014D01*
G01X-1336852Y84284D01*
G01X-1336146Y84593D01*
G01X-1335457Y84941D01*
G01X-1334789Y85327D01*
G01X-1334142Y85749D01*
G01X-1333519Y86206D01*
G01X-1332925Y86697D01*
G01X-1332359Y87220D01*
G01X-1331820Y87774D01*
G01X-1331312Y88355D01*
G01X-1330840Y88965D01*
G01X-1330400Y89597D01*
G01X-1329994Y90255D01*
G01X-1329628Y90933D01*
G01X-1329298Y91632D01*
G01X-1329008Y92346D01*
G01X-1328757Y93077D01*
G01X-1328549Y93819D01*
G01X-1328378Y94571D01*
G01X-1328251Y95333D01*
G01X-1328168Y96100D01*
G01X-1328124Y96869D01*
G01X-1328124Y97641D01*
G01X-1328168Y98411D01*
G01X-1328251Y99178D01*
G01X-1328378Y99940D01*
G01X-1328549Y100692D01*
G01X-1328757Y101434D01*
G01X-1329008Y102165D01*
G01X-1329298Y102879D01*
G01X-1329628Y103577D01*
G01X-1329994Y104256D01*
G01X-1330400Y104913D01*
G01X-1330840Y105546D01*
G01X-1331312Y106155D01*
G01X-1331820Y106737D01*
G01X-1332359Y107291D01*
G01X-1332925Y107814D01*
G01X-1333519Y108304D01*
G01X-1334142Y108762D01*
G01X-1334789Y109183D01*
G01X-1335457Y109569D01*
G01X-1336146Y109917D01*
G01X-1336852Y110227D01*
G01X-1337573Y110496D01*
G01X-1338310Y110727D01*
G01X-1339059Y110918D01*
G01X-1339816Y111065D01*
G01X-1340581Y111172D01*
G01X-1341348Y111235D01*
G01X-1342120Y111256D01*
G01X-1394119Y111256D01*
G01X-1394891Y111235D01*
G37*
G36*
G01X-1081937Y61223D02*
G01X-1082704Y61159D01*
G01X-1083469Y61053D01*
G01X-1084226Y60905D01*
G01X-1084975Y60715D01*
G01X-1085712Y60484D01*
G01X-1086433Y60215D01*
G01X-1087139Y59905D01*
G01X-1087828Y59557D01*
G01X-1088496Y59171D01*
G01X-1089143Y58749D01*
G01X-1089766Y58292D01*
G01X-1090360Y57802D01*
G01X-1090926Y57278D01*
G01X-1091465Y56725D01*
G01X-1091973Y56143D01*
G01X-1092445Y55533D01*
G01X-1092885Y54901D01*
G01X-1093291Y54243D01*
G01X-1093657Y53565D01*
G01X-1093987Y52866D01*
G01X-1094277Y52153D01*
G01X-1094528Y51421D01*
G01X-1094736Y50679D01*
G01X-1094907Y49928D01*
G01X-1095034Y49166D01*
G01X-1095117Y48398D01*
G01X-1095161Y47629D01*
G01X-1095161Y46857D01*
G01X-1095117Y46087D01*
G01X-1095034Y45320D01*
G01X-1094907Y44558D01*
G01X-1094736Y43806D01*
G01X-1094528Y43064D01*
G01X-1094277Y42333D01*
G01X-1093987Y41619D01*
G01X-1093657Y40921D01*
G01X-1093291Y40242D01*
G01X-1092885Y39585D01*
G01X-1092445Y38952D01*
G01X-1091973Y38343D01*
G01X-1091465Y37761D01*
G01X-1090926Y37207D01*
G01X-1090360Y36684D01*
G01X-1089766Y36194D01*
G01X-1089143Y35737D01*
G01X-1088496Y35315D01*
G01X-1087828Y34929D01*
G01X-1087139Y34581D01*
G01X-1086433Y34271D01*
G01X-1085712Y34002D01*
G01X-1084975Y33771D01*
G01X-1084226Y33580D01*
G01X-1083469Y33433D01*
G01X-1082704Y33326D01*
G01X-1081937Y33263D01*
G01X-1081165Y33242D01*
G01X-1029166Y33242D01*
G01X-1028394Y33263D01*
G01X-1027627Y33326D01*
G01X-1026863Y33433D01*
G01X-1026106Y33580D01*
G01X-1025356Y33771D01*
G01X-1024620Y34002D01*
G01X-1023898Y34271D01*
G01X-1023192Y34581D01*
G01X-1022504Y34929D01*
G01X-1021836Y35315D01*
G01X-1021188Y35737D01*
G01X-1020566Y36194D01*
G01X-1019972Y36684D01*
G01X-1019405Y37207D01*
G01X-1018867Y37761D01*
G01X-1018359Y38343D01*
G01X-1017886Y38952D01*
G01X-1017447Y39585D01*
G01X-1017040Y40242D01*
G01X-1016675Y40921D01*
G01X-1016344Y41619D01*
G01X-1016055Y42333D01*
G01X-1015803Y43064D01*
G01X-1015595Y43806D01*
G01X-1015425Y44558D01*
G01X-1015298Y45320D01*
G01X-1015214Y46087D01*
G01X-1015171Y46857D01*
G01X-1015171Y47629D01*
G01X-1015214Y48398D01*
G01X-1015298Y49166D01*
G01X-1015425Y49928D01*
G01X-1015595Y50679D01*
G01X-1015803Y51421D01*
G01X-1016055Y52153D01*
G01X-1016344Y52866D01*
G01X-1016675Y53565D01*
G01X-1017040Y54243D01*
G01X-1017447Y54901D01*
G01X-1017886Y55533D01*
G01X-1018359Y56143D01*
G01X-1018867Y56725D01*
G01X-1019405Y57278D01*
G01X-1019972Y57802D01*
G01X-1020566Y58292D01*
G01X-1021188Y58749D01*
G01X-1021836Y59171D01*
G01X-1022504Y59557D01*
G01X-1023192Y59905D01*
G01X-1023898Y60215D01*
G01X-1024620Y60484D01*
G01X-1025356Y60715D01*
G01X-1026106Y60905D01*
G01X-1026863Y61053D01*
G01X-1027627Y61159D01*
G01X-1028394Y61223D01*
G01X-1029166Y61243D01*
G01X-1081165Y61243D01*
G01X-1081937Y61223D01*
G37*
G36*
G01X-1394891Y61223D02*
G01X-1395658Y61159D01*
G01X-1396422Y61053D01*
G01X-1397179Y60905D01*
G01X-1397929Y60715D01*
G01X-1398665Y60484D01*
G01X-1399387Y60215D01*
G01X-1400093Y59905D01*
G01X-1400781Y59557D01*
G01X-1401449Y59171D01*
G01X-1402097Y58749D01*
G01X-1402719Y58292D01*
G01X-1403313Y57802D01*
G01X-1403880Y57278D01*
G01X-1404418Y56725D01*
G01X-1404926Y56143D01*
G01X-1405399Y55533D01*
G01X-1405838Y54901D01*
G01X-1406245Y54243D01*
G01X-1406610Y53565D01*
G01X-1406941Y52866D01*
G01X-1407230Y52153D01*
G01X-1407482Y51421D01*
G01X-1407690Y50679D01*
G01X-1407860Y49928D01*
G01X-1407987Y49166D01*
G01X-1408071Y48398D01*
G01X-1408114Y47629D01*
G01X-1408114Y46857D01*
G01X-1408071Y46087D01*
G01X-1407987Y45320D01*
G01X-1407860Y44558D01*
G01X-1407690Y43806D01*
G01X-1407482Y43064D01*
G01X-1407230Y42333D01*
G01X-1406941Y41619D01*
G01X-1406610Y40921D01*
G01X-1406245Y40242D01*
G01X-1405838Y39585D01*
G01X-1405399Y38952D01*
G01X-1404926Y38343D01*
G01X-1404418Y37761D01*
G01X-1403880Y37207D01*
G01X-1403313Y36684D01*
G01X-1402719Y36194D01*
G01X-1402097Y35737D01*
G01X-1401449Y35315D01*
G01X-1400781Y34929D01*
G01X-1400093Y34581D01*
G01X-1399387Y34271D01*
G01X-1398665Y34002D01*
G01X-1397929Y33771D01*
G01X-1397179Y33580D01*
G01X-1396422Y33433D01*
G01X-1395658Y33326D01*
G01X-1394891Y33263D01*
G01X-1394119Y33242D01*
G01X-1342120Y33242D01*
G01X-1341348Y33263D01*
G01X-1340581Y33326D01*
G01X-1339816Y33433D01*
G01X-1339059Y33580D01*
G01X-1338310Y33771D01*
G01X-1337573Y34002D01*
G01X-1336852Y34271D01*
G01X-1336146Y34581D01*
G01X-1335457Y34929D01*
G01X-1334789Y35315D01*
G01X-1334142Y35737D01*
G01X-1333519Y36194D01*
G01X-1332925Y36684D01*
G01X-1332359Y37207D01*
G01X-1331820Y37761D01*
G01X-1331312Y38343D01*
G01X-1330840Y38952D01*
G01X-1330400Y39585D01*
G01X-1329994Y40242D01*
G01X-1329628Y40921D01*
G01X-1329298Y41619D01*
G01X-1329008Y42333D01*
G01X-1328757Y43064D01*
G01X-1328549Y43806D01*
G01X-1328378Y44558D01*
G01X-1328251Y45320D01*
G01X-1328168Y46087D01*
G01X-1328124Y46857D01*
G01X-1328124Y47629D01*
G01X-1328168Y48398D01*
G01X-1328251Y49166D01*
G01X-1328378Y49928D01*
G01X-1328549Y50679D01*
G01X-1328757Y51421D01*
G01X-1329008Y52153D01*
G01X-1329298Y52866D01*
G01X-1329628Y53565D01*
G01X-1329994Y54243D01*
G01X-1330400Y54901D01*
G01X-1330840Y55533D01*
G01X-1331312Y56143D01*
G01X-1331820Y56725D01*
G01X-1332359Y57278D01*
G01X-1332925Y57802D01*
G01X-1333519Y58292D01*
G01X-1334142Y58749D01*
G01X-1334789Y59171D01*
G01X-1335457Y59557D01*
G01X-1336146Y59905D01*
G01X-1336852Y60215D01*
G01X-1337573Y60484D01*
G01X-1338310Y60715D01*
G01X-1339059Y60905D01*
G01X-1339816Y61053D01*
G01X-1340581Y61159D01*
G01X-1341348Y61223D01*
G01X-1342120Y61243D01*
G01X-1394119Y61243D01*
G01X-1394891Y61223D01*
G37*
G36*
G01X-1081937Y11236D02*
G01X-1082704Y11172D01*
G01X-1083469Y11066D01*
G01X-1084226Y10918D01*
G01X-1084975Y10728D01*
G01X-1085712Y10497D01*
G01X-1086433Y10227D01*
G01X-1087139Y9917D01*
G01X-1087828Y9569D01*
G01X-1088496Y9183D01*
G01X-1089143Y8762D01*
G01X-1089766Y8305D01*
G01X-1090360Y7814D01*
G01X-1090926Y7291D01*
G01X-1091465Y6737D01*
G01X-1091973Y6156D01*
G01X-1092445Y5546D01*
G01X-1092885Y4914D01*
G01X-1093291Y4256D01*
G01X-1093657Y3578D01*
G01X-1093987Y2879D01*
G01X-1094277Y2165D01*
G01X-1094528Y1434D01*
G01X-1094736Y692D01*
G01X-1094907Y-60D01*
G01X-1095034Y-822D01*
G01X-1095117Y-1589D01*
G01X-1095161Y-2358D01*
G01X-1095161Y-3131D01*
G01X-1095117Y-3900D01*
G01X-1095034Y-4667D01*
G01X-1094907Y-5429D01*
G01X-1094736Y-6181D01*
G01X-1094528Y-6923D01*
G01X-1094277Y-7654D01*
G01X-1093987Y-8368D01*
G01X-1093657Y-9067D01*
G01X-1093291Y-9745D01*
G01X-1092885Y-10403D01*
G01X-1092445Y-11035D01*
G01X-1091973Y-11645D01*
G01X-1091465Y-12226D01*
G01X-1090926Y-12780D01*
G01X-1090360Y-13303D01*
G01X-1089766Y-13793D01*
G01X-1089143Y-14251D01*
G01X-1088496Y-14672D01*
G01X-1087828Y-15058D01*
G01X-1087139Y-15406D01*
G01X-1086433Y-15716D01*
G01X-1085712Y-15985D01*
G01X-1084975Y-16217D01*
G01X-1084226Y-16407D01*
G01X-1083469Y-16554D01*
G01X-1082704Y-16661D01*
G01X-1081937Y-16725D01*
G01X-1081165Y-16745D01*
G01X-1029166Y-16745D01*
G01X-1028394Y-16725D01*
G01X-1027627Y-16661D01*
G01X-1026863Y-16554D01*
G01X-1026106Y-16407D01*
G01X-1025356Y-16217D01*
G01X-1024620Y-15985D01*
G01X-1023898Y-15716D01*
G01X-1023192Y-15406D01*
G01X-1022504Y-15058D01*
G01X-1021836Y-14672D01*
G01X-1021188Y-14251D01*
G01X-1020566Y-13793D01*
G01X-1019972Y-13303D01*
G01X-1019405Y-12780D01*
G01X-1018867Y-12226D01*
G01X-1018359Y-11645D01*
G01X-1017886Y-11035D01*
G01X-1017447Y-10403D01*
G01X-1017040Y-9745D01*
G01X-1016675Y-9067D01*
G01X-1016344Y-8368D01*
G01X-1016055Y-7654D01*
G01X-1015803Y-6923D01*
G01X-1015595Y-6181D01*
G01X-1015425Y-5429D01*
G01X-1015298Y-4667D01*
G01X-1015214Y-3900D01*
G01X-1015171Y-3131D01*
G01X-1015171Y-2358D01*
G01X-1015214Y-1589D01*
G01X-1015298Y-822D01*
G01X-1015425Y-60D01*
G01X-1015595Y692D01*
G01X-1015803Y1434D01*
G01X-1016055Y2165D01*
G01X-1016344Y2879D01*
G01X-1016675Y3578D01*
G01X-1017040Y4256D01*
G01X-1017447Y4914D01*
G01X-1017886Y5546D01*
G01X-1018359Y6156D01*
G01X-1018867Y6737D01*
G01X-1019405Y7291D01*
G01X-1019972Y7814D01*
G01X-1020566Y8305D01*
G01X-1021188Y8762D01*
G01X-1021836Y9183D01*
G01X-1022504Y9569D01*
G01X-1023192Y9917D01*
G01X-1023898Y10227D01*
G01X-1024620Y10497D01*
G01X-1025356Y10728D01*
G01X-1026106Y10918D01*
G01X-1026863Y11066D01*
G01X-1027627Y11172D01*
G01X-1028394Y11236D01*
G01X-1029166Y11256D01*
G01X-1081165Y11256D01*
G01X-1081937Y11236D01*
G37*
G36*
G01X-1394891Y11236D02*
G01X-1395658Y11172D01*
G01X-1396422Y11066D01*
G01X-1397179Y10918D01*
G01X-1397929Y10728D01*
G01X-1398665Y10497D01*
G01X-1399387Y10227D01*
G01X-1400093Y9917D01*
G01X-1400781Y9569D01*
G01X-1401449Y9183D01*
G01X-1402097Y8762D01*
G01X-1402719Y8305D01*
G01X-1403313Y7814D01*
G01X-1403880Y7291D01*
G01X-1404418Y6737D01*
G01X-1404926Y6156D01*
G01X-1405399Y5546D01*
G01X-1405838Y4914D01*
G01X-1406245Y4256D01*
G01X-1406610Y3578D01*
G01X-1406941Y2879D01*
G01X-1407230Y2165D01*
G01X-1407482Y1434D01*
G01X-1407690Y692D01*
G01X-1407860Y-60D01*
G01X-1407987Y-822D01*
G01X-1408071Y-1589D01*
G01X-1408114Y-2358D01*
G01X-1408114Y-3131D01*
G01X-1408071Y-3900D01*
G01X-1407987Y-4667D01*
G01X-1407860Y-5429D01*
G01X-1407690Y-6181D01*
G01X-1407482Y-6923D01*
G01X-1407230Y-7654D01*
G01X-1406941Y-8368D01*
G01X-1406610Y-9067D01*
G01X-1406245Y-9745D01*
G01X-1405838Y-10403D01*
G01X-1405399Y-11035D01*
G01X-1404926Y-11645D01*
G01X-1404418Y-12226D01*
G01X-1403880Y-12780D01*
G01X-1403313Y-13303D01*
G01X-1402719Y-13793D01*
G01X-1402097Y-14251D01*
G01X-1401449Y-14672D01*
G01X-1400781Y-15058D01*
G01X-1400093Y-15406D01*
G01X-1399387Y-15716D01*
G01X-1398665Y-15985D01*
G01X-1397929Y-16217D01*
G01X-1397179Y-16407D01*
G01X-1396422Y-16554D01*
G01X-1395658Y-16661D01*
G01X-1394891Y-16725D01*
G01X-1394119Y-16745D01*
G01X-1342120Y-16745D01*
G01X-1341348Y-16725D01*
G01X-1340581Y-16661D01*
G01X-1339816Y-16554D01*
G01X-1339059Y-16407D01*
G01X-1338310Y-16217D01*
G01X-1337573Y-15985D01*
G01X-1336852Y-15716D01*
G01X-1336146Y-15406D01*
G01X-1335457Y-15058D01*
G01X-1334789Y-14672D01*
G01X-1334142Y-14251D01*
G01X-1333519Y-13793D01*
G01X-1332925Y-13303D01*
G01X-1332359Y-12780D01*
G01X-1331820Y-12226D01*
G01X-1331312Y-11645D01*
G01X-1330840Y-11035D01*
G01X-1330400Y-10403D01*
G01X-1329994Y-9745D01*
G01X-1329628Y-9067D01*
G01X-1329298Y-8368D01*
G01X-1329008Y-7654D01*
G01X-1328757Y-6923D01*
G01X-1328549Y-6181D01*
G01X-1328378Y-5429D01*
G01X-1328251Y-4667D01*
G01X-1328168Y-3900D01*
G01X-1328124Y-3131D01*
G01X-1328124Y-2358D01*
G01X-1328168Y-1589D01*
G01X-1328251Y-822D01*
G01X-1328378Y-60D01*
G01X-1328549Y692D01*
G01X-1328757Y1434D01*
G01X-1329008Y2165D01*
G01X-1329298Y2879D01*
G01X-1329628Y3578D01*
G01X-1329994Y4256D01*
G01X-1330400Y4914D01*
G01X-1330840Y5546D01*
G01X-1331312Y6156D01*
G01X-1331820Y6737D01*
G01X-1332359Y7291D01*
G01X-1332925Y7814D01*
G01X-1333519Y8305D01*
G01X-1334142Y8762D01*
G01X-1334789Y9183D01*
G01X-1335457Y9569D01*
G01X-1336146Y9917D01*
G01X-1336852Y10227D01*
G01X-1337573Y10497D01*
G01X-1338310Y10728D01*
G01X-1339059Y10918D01*
G01X-1339816Y11066D01*
G01X-1340581Y11172D01*
G01X-1341348Y11236D01*
G01X-1342120Y11256D01*
G01X-1394119Y11256D01*
G01X-1394891Y11236D01*
G37*
G36*
G01X-1081937Y-38777D02*
G01X-1082704Y-38840D01*
G01X-1083469Y-38947D01*
G01X-1084226Y-39094D01*
G01X-1084975Y-39285D01*
G01X-1085712Y-39516D01*
G01X-1086433Y-39785D01*
G01X-1087139Y-40095D01*
G01X-1087828Y-40443D01*
G01X-1088496Y-40829D01*
G01X-1089143Y-41251D01*
G01X-1089766Y-41708D01*
G01X-1090360Y-42198D01*
G01X-1090926Y-42722D01*
G01X-1091465Y-43275D01*
G01X-1091973Y-43857D01*
G01X-1092445Y-44467D01*
G01X-1092885Y-45099D01*
G01X-1093291Y-45757D01*
G01X-1093657Y-46435D01*
G01X-1093987Y-47134D01*
G01X-1094277Y-47847D01*
G01X-1094528Y-48579D01*
G01X-1094736Y-49320D01*
G01X-1094907Y-50072D01*
G01X-1095034Y-50834D01*
G01X-1095117Y-51601D01*
G01X-1095161Y-52371D01*
G01X-1095161Y-53143D01*
G01X-1095117Y-53913D01*
G01X-1095034Y-54680D01*
G01X-1094907Y-55442D01*
G01X-1094736Y-56194D01*
G01X-1094528Y-56935D01*
G01X-1094277Y-57667D01*
G01X-1093987Y-58381D01*
G01X-1093657Y-59079D01*
G01X-1093291Y-59757D01*
G01X-1092885Y-60415D01*
G01X-1092445Y-61048D01*
G01X-1091973Y-61657D01*
G01X-1091465Y-62239D01*
G01X-1090926Y-62793D01*
G01X-1090360Y-63316D01*
G01X-1089766Y-63806D01*
G01X-1089143Y-64263D01*
G01X-1088496Y-64685D01*
G01X-1087828Y-65071D01*
G01X-1087139Y-65419D01*
G01X-1086433Y-65729D01*
G01X-1085712Y-65998D01*
G01X-1084975Y-66229D01*
G01X-1084226Y-66420D01*
G01X-1083469Y-66567D01*
G01X-1082704Y-66674D01*
G01X-1081937Y-66737D01*
G01X-1081165Y-66758D01*
G01X-1029166Y-66758D01*
G01X-1028394Y-66737D01*
G01X-1027627Y-66674D01*
G01X-1026863Y-66567D01*
G01X-1026106Y-66420D01*
G01X-1025356Y-66229D01*
G01X-1024620Y-65998D01*
G01X-1023898Y-65729D01*
G01X-1023192Y-65419D01*
G01X-1022504Y-65071D01*
G01X-1021836Y-64685D01*
G01X-1021188Y-64263D01*
G01X-1020566Y-63806D01*
G01X-1019972Y-63316D01*
G01X-1019405Y-62793D01*
G01X-1018867Y-62239D01*
G01X-1018359Y-61657D01*
G01X-1017886Y-61048D01*
G01X-1017447Y-60415D01*
G01X-1017040Y-59757D01*
G01X-1016675Y-59079D01*
G01X-1016344Y-58381D01*
G01X-1016055Y-57667D01*
G01X-1015803Y-56935D01*
G01X-1015595Y-56194D01*
G01X-1015425Y-55442D01*
G01X-1015298Y-54680D01*
G01X-1015214Y-53913D01*
G01X-1015171Y-53143D01*
G01X-1015171Y-52371D01*
G01X-1015214Y-51601D01*
G01X-1015298Y-50834D01*
G01X-1015425Y-50072D01*
G01X-1015595Y-49320D01*
G01X-1015803Y-48579D01*
G01X-1016055Y-47847D01*
G01X-1016344Y-47134D01*
G01X-1016675Y-46435D01*
G01X-1017040Y-45757D01*
G01X-1017447Y-45099D01*
G01X-1017886Y-44467D01*
G01X-1018359Y-43857D01*
G01X-1018867Y-43275D01*
G01X-1019405Y-42722D01*
G01X-1019972Y-42198D01*
G01X-1020566Y-41708D01*
G01X-1021188Y-41251D01*
G01X-1021836Y-40829D01*
G01X-1022504Y-40443D01*
G01X-1023192Y-40095D01*
G01X-1023898Y-39785D01*
G01X-1024620Y-39516D01*
G01X-1025356Y-39285D01*
G01X-1026106Y-39094D01*
G01X-1026863Y-38947D01*
G01X-1027627Y-38840D01*
G01X-1028394Y-38777D01*
G01X-1029166Y-38757D01*
G01X-1081165Y-38757D01*
G01X-1081937Y-38777D01*
G37*
G36*
G01X-1394891Y-38777D02*
G01X-1395658Y-38840D01*
G01X-1396422Y-38947D01*
G01X-1397179Y-39094D01*
G01X-1397929Y-39285D01*
G01X-1398665Y-39516D01*
G01X-1399387Y-39785D01*
G01X-1400093Y-40095D01*
G01X-1400781Y-40443D01*
G01X-1401449Y-40829D01*
G01X-1402097Y-41251D01*
G01X-1402719Y-41708D01*
G01X-1403313Y-42198D01*
G01X-1403880Y-42722D01*
G01X-1404418Y-43275D01*
G01X-1404926Y-43857D01*
G01X-1405399Y-44467D01*
G01X-1405838Y-45099D01*
G01X-1406245Y-45757D01*
G01X-1406610Y-46435D01*
G01X-1406941Y-47134D01*
G01X-1407230Y-47847D01*
G01X-1407482Y-48579D01*
G01X-1407690Y-49320D01*
G01X-1407860Y-50072D01*
G01X-1407987Y-50834D01*
G01X-1408071Y-51601D01*
G01X-1408114Y-52371D01*
G01X-1408114Y-53143D01*
G01X-1408071Y-53913D01*
G01X-1407987Y-54680D01*
G01X-1407860Y-55442D01*
G01X-1407690Y-56194D01*
G01X-1407482Y-56935D01*
G01X-1407230Y-57667D01*
G01X-1406941Y-58381D01*
G01X-1406610Y-59079D01*
G01X-1406245Y-59757D01*
G01X-1405838Y-60415D01*
G01X-1405399Y-61048D01*
G01X-1404926Y-61657D01*
G01X-1404418Y-62239D01*
G01X-1403880Y-62793D01*
G01X-1403313Y-63316D01*
G01X-1402719Y-63806D01*
G01X-1402097Y-64263D01*
G01X-1401449Y-64685D01*
G01X-1400781Y-65071D01*
G01X-1400093Y-65419D01*
G01X-1399387Y-65729D01*
G01X-1398665Y-65998D01*
G01X-1397929Y-66229D01*
G01X-1397179Y-66420D01*
G01X-1396422Y-66567D01*
G01X-1395658Y-66674D01*
G01X-1394891Y-66737D01*
G01X-1394119Y-66758D01*
G01X-1342120Y-66758D01*
G01X-1341348Y-66737D01*
G01X-1340581Y-66674D01*
G01X-1339816Y-66567D01*
G01X-1339059Y-66420D01*
G01X-1338310Y-66229D01*
G01X-1337573Y-65998D01*
G01X-1336852Y-65729D01*
G01X-1336146Y-65419D01*
G01X-1335457Y-65071D01*
G01X-1334789Y-64685D01*
G01X-1334142Y-64263D01*
G01X-1333519Y-63806D01*
G01X-1332925Y-63316D01*
G01X-1332359Y-62793D01*
G01X-1331820Y-62239D01*
G01X-1331312Y-61657D01*
G01X-1330840Y-61048D01*
G01X-1330400Y-60415D01*
G01X-1329994Y-59757D01*
G01X-1329628Y-59079D01*
G01X-1329298Y-58381D01*
G01X-1329008Y-57667D01*
G01X-1328757Y-56935D01*
G01X-1328549Y-56194D01*
G01X-1328378Y-55442D01*
G01X-1328251Y-54680D01*
G01X-1328168Y-53913D01*
G01X-1328124Y-53143D01*
G01X-1328124Y-52371D01*
G01X-1328168Y-51601D01*
G01X-1328251Y-50834D01*
G01X-1328378Y-50072D01*
G01X-1328549Y-49320D01*
G01X-1328757Y-48579D01*
G01X-1329008Y-47847D01*
G01X-1329298Y-47134D01*
G01X-1329628Y-46435D01*
G01X-1329994Y-45757D01*
G01X-1330400Y-45099D01*
G01X-1330840Y-44467D01*
G01X-1331312Y-43857D01*
G01X-1331820Y-43275D01*
G01X-1332359Y-42722D01*
G01X-1332925Y-42198D01*
G01X-1333519Y-41708D01*
G01X-1334142Y-41251D01*
G01X-1334789Y-40829D01*
G01X-1335457Y-40443D01*
G01X-1336146Y-40095D01*
G01X-1336852Y-39785D01*
G01X-1337573Y-39516D01*
G01X-1338310Y-39285D01*
G01X-1339059Y-39094D01*
G01X-1339816Y-38947D01*
G01X-1340581Y-38840D01*
G01X-1341348Y-38777D01*
G01X-1342120Y-38757D01*
G01X-1394119Y-38757D01*
G01X-1394891Y-38777D01*
G37*
G36*
G01X-1135892Y-93864D02*
G01X-1136662Y-93908D01*
G01X-1137429Y-93991D01*
G01X-1138191Y-94118D01*
G01X-1138943Y-94289D01*
G01X-1139684Y-94497D01*
G01X-1140416Y-94748D01*
G01X-1141130Y-95038D01*
G01X-1141828Y-95368D01*
G01X-1142506Y-95734D01*
G01X-1143164Y-96140D01*
G01X-1143797Y-96580D01*
G01X-1144406Y-97052D01*
G01X-1144988Y-97560D01*
G01X-1145542Y-98099D01*
G01X-1146065Y-98665D01*
G01X-1146555Y-99259D01*
G01X-1147012Y-99882D01*
G01X-1147434Y-100529D01*
G01X-1147820Y-101197D01*
G01X-1148168Y-101886D01*
G01X-1148478Y-102592D01*
G01X-1148747Y-103313D01*
G01X-1148978Y-104050D01*
G01X-1149169Y-104799D01*
G01X-1149316Y-105556D01*
G01X-1149423Y-106321D01*
G01X-1149486Y-107088D01*
G01X-1149506Y-107860D01*
G01X-1149506Y-159859D01*
G01X-1149486Y-160631D01*
G01X-1149423Y-161398D01*
G01X-1149316Y-162162D01*
G01X-1149169Y-162919D01*
G01X-1148978Y-163669D01*
G01X-1148747Y-164405D01*
G01X-1148478Y-165127D01*
G01X-1148168Y-165833D01*
G01X-1147820Y-166521D01*
G01X-1147434Y-167189D01*
G01X-1147012Y-167837D01*
G01X-1146555Y-168459D01*
G01X-1146065Y-169054D01*
G01X-1145542Y-169620D01*
G01X-1144988Y-170158D01*
G01X-1144406Y-170666D01*
G01X-1143797Y-171139D01*
G01X-1143164Y-171578D01*
G01X-1142506Y-171985D01*
G01X-1141828Y-172350D01*
G01X-1141130Y-172681D01*
G01X-1140416Y-172970D01*
G01X-1139684Y-173222D01*
G01X-1138943Y-173430D01*
G01X-1138191Y-173600D01*
G01X-1137429Y-173727D01*
G01X-1136662Y-173811D01*
G01X-1135892Y-173854D01*
G01X-1135120Y-173854D01*
G01X-1134350Y-173811D01*
G01X-1133583Y-173727D01*
G01X-1132821Y-173600D01*
G01X-1132069Y-173430D01*
G01X-1131328Y-173222D01*
G01X-1130596Y-172970D01*
G01X-1129882Y-172681D01*
G01X-1129184Y-172350D01*
G01X-1128506Y-171985D01*
G01X-1127848Y-171578D01*
G01X-1127215Y-171139D01*
G01X-1126606Y-170666D01*
G01X-1126024Y-170158D01*
G01X-1125470Y-169620D01*
G01X-1124947Y-169054D01*
G01X-1124457Y-168459D01*
G01X-1124000Y-167837D01*
G01X-1123578Y-167189D01*
G01X-1123192Y-166521D01*
G01X-1122844Y-165833D01*
G01X-1122534Y-165127D01*
G01X-1122265Y-164405D01*
G01X-1122034Y-163669D01*
G01X-1121843Y-162919D01*
G01X-1121696Y-162162D01*
G01X-1121589Y-161398D01*
G01X-1121526Y-160631D01*
G01X-1121506Y-159859D01*
G01X-1121506Y-107860D01*
G01X-1121526Y-107088D01*
G01X-1121589Y-106321D01*
G01X-1121696Y-105556D01*
G01X-1121843Y-104799D01*
G01X-1122034Y-104050D01*
G01X-1122265Y-103313D01*
G01X-1122534Y-102592D01*
G01X-1122844Y-101886D01*
G01X-1123192Y-101197D01*
G01X-1123578Y-100529D01*
G01X-1124000Y-99882D01*
G01X-1124457Y-99259D01*
G01X-1124947Y-98665D01*
G01X-1125470Y-98099D01*
G01X-1126024Y-97560D01*
G01X-1126606Y-97052D01*
G01X-1127215Y-96580D01*
G01X-1127848Y-96140D01*
G01X-1128506Y-95734D01*
G01X-1129184Y-95368D01*
G01X-1129882Y-95038D01*
G01X-1130596Y-94748D01*
G01X-1131328Y-94497D01*
G01X-1132069Y-94289D01*
G01X-1132821Y-94118D01*
G01X-1133583Y-93991D01*
G01X-1134350Y-93908D01*
G01X-1135120Y-93864D01*
G01X-1135892Y-93864D01*
G37*
G36*
G01X-1235892Y-93864D02*
G01X-1236661Y-93908D01*
G01X-1237429Y-93991D01*
G01X-1238191Y-94118D01*
G01X-1238942Y-94289D01*
G01X-1239684Y-94497D01*
G01X-1240416Y-94748D01*
G01X-1241129Y-95038D01*
G01X-1241828Y-95368D01*
G01X-1242506Y-95734D01*
G01X-1243164Y-96140D01*
G01X-1243796Y-96580D01*
G01X-1244406Y-97052D01*
G01X-1244988Y-97560D01*
G01X-1245541Y-98099D01*
G01X-1246065Y-98665D01*
G01X-1246555Y-99259D01*
G01X-1247012Y-99882D01*
G01X-1247434Y-100529D01*
G01X-1247820Y-101197D01*
G01X-1248168Y-101886D01*
G01X-1248478Y-102592D01*
G01X-1248747Y-103313D01*
G01X-1248978Y-104050D01*
G01X-1249168Y-104799D01*
G01X-1249316Y-105556D01*
G01X-1249422Y-106321D01*
G01X-1249486Y-107088D01*
G01X-1249506Y-107860D01*
G01X-1249506Y-159859D01*
G01X-1249486Y-160631D01*
G01X-1249422Y-161398D01*
G01X-1249316Y-162162D01*
G01X-1249168Y-162919D01*
G01X-1248978Y-163669D01*
G01X-1248747Y-164405D01*
G01X-1248478Y-165127D01*
G01X-1248168Y-165833D01*
G01X-1247820Y-166521D01*
G01X-1247434Y-167189D01*
G01X-1247012Y-167837D01*
G01X-1246555Y-168459D01*
G01X-1246065Y-169054D01*
G01X-1245541Y-169620D01*
G01X-1244988Y-170158D01*
G01X-1244406Y-170666D01*
G01X-1243796Y-171139D01*
G01X-1243164Y-171578D01*
G01X-1242506Y-171985D01*
G01X-1241828Y-172350D01*
G01X-1241129Y-172681D01*
G01X-1240416Y-172970D01*
G01X-1239684Y-173222D01*
G01X-1238942Y-173430D01*
G01X-1238191Y-173600D01*
G01X-1237429Y-173727D01*
G01X-1236661Y-173811D01*
G01X-1235892Y-173854D01*
G01X-1235120Y-173854D01*
G01X-1234350Y-173811D01*
G01X-1233583Y-173727D01*
G01X-1232821Y-173600D01*
G01X-1232069Y-173430D01*
G01X-1231327Y-173222D01*
G01X-1230596Y-172970D01*
G01X-1229882Y-172681D01*
G01X-1229184Y-172350D01*
G01X-1228506Y-171985D01*
G01X-1227848Y-171578D01*
G01X-1227215Y-171139D01*
G01X-1226606Y-170666D01*
G01X-1226024Y-170158D01*
G01X-1225470Y-169620D01*
G01X-1224947Y-169054D01*
G01X-1224457Y-168459D01*
G01X-1224000Y-167837D01*
G01X-1223578Y-167189D01*
G01X-1223192Y-166521D01*
G01X-1222844Y-165833D01*
G01X-1222534Y-165127D01*
G01X-1222265Y-164405D01*
G01X-1222034Y-163669D01*
G01X-1221843Y-162919D01*
G01X-1221696Y-162162D01*
G01X-1221589Y-161398D01*
G01X-1221526Y-160631D01*
G01X-1221505Y-159859D01*
G01X-1221505Y-107860D01*
G01X-1221526Y-107088D01*
G01X-1221589Y-106321D01*
G01X-1221696Y-105556D01*
G01X-1221843Y-104799D01*
G01X-1222034Y-104050D01*
G01X-1222265Y-103313D01*
G01X-1222534Y-102592D01*
G01X-1222844Y-101886D01*
G01X-1223192Y-101197D01*
G01X-1223578Y-100529D01*
G01X-1224000Y-99882D01*
G01X-1224457Y-99259D01*
G01X-1224947Y-98665D01*
G01X-1225470Y-98099D01*
G01X-1226024Y-97560D01*
G01X-1226606Y-97052D01*
G01X-1227215Y-96580D01*
G01X-1227848Y-96140D01*
G01X-1228506Y-95734D01*
G01X-1229184Y-95368D01*
G01X-1229882Y-95038D01*
G01X-1230596Y-94748D01*
G01X-1231327Y-94497D01*
G01X-1232069Y-94289D01*
G01X-1232821Y-94118D01*
G01X-1233583Y-93991D01*
G01X-1234350Y-93908D01*
G01X-1235120Y-93864D01*
G01X-1235892Y-93864D01*
G37*
G36*
G01X-1185905Y-93864D02*
G01X-1186674Y-93908D01*
G01X-1187441Y-93991D01*
G01X-1188203Y-94118D01*
G01X-1188955Y-94289D01*
G01X-1189697Y-94497D01*
G01X-1190428Y-94748D01*
G01X-1191142Y-95038D01*
G01X-1191841Y-95368D01*
G01X-1192519Y-95734D01*
G01X-1193177Y-96140D01*
G01X-1193809Y-96580D01*
G01X-1194419Y-97052D01*
G01X-1195000Y-97560D01*
G01X-1195554Y-98099D01*
G01X-1196077Y-98665D01*
G01X-1196568Y-99259D01*
G01X-1197025Y-99882D01*
G01X-1197446Y-100529D01*
G01X-1197833Y-101197D01*
G01X-1198180Y-101886D01*
G01X-1198490Y-102592D01*
G01X-1198760Y-103313D01*
G01X-1198991Y-104050D01*
G01X-1199181Y-104799D01*
G01X-1199329Y-105556D01*
G01X-1199435Y-106321D01*
G01X-1199499Y-107088D01*
G01X-1199519Y-107860D01*
G01X-1199519Y-159859D01*
G01X-1199499Y-160631D01*
G01X-1199435Y-161398D01*
G01X-1199329Y-162162D01*
G01X-1199181Y-162919D01*
G01X-1198991Y-163669D01*
G01X-1198760Y-164405D01*
G01X-1198490Y-165127D01*
G01X-1198180Y-165833D01*
G01X-1197833Y-166521D01*
G01X-1197446Y-167189D01*
G01X-1197025Y-167837D01*
G01X-1196568Y-168459D01*
G01X-1196077Y-169054D01*
G01X-1195554Y-169620D01*
G01X-1195000Y-170158D01*
G01X-1194419Y-170666D01*
G01X-1193809Y-171139D01*
G01X-1193177Y-171578D01*
G01X-1192519Y-171985D01*
G01X-1191841Y-172350D01*
G01X-1191142Y-172681D01*
G01X-1190428Y-172970D01*
G01X-1189697Y-173222D01*
G01X-1188955Y-173430D01*
G01X-1188203Y-173600D01*
G01X-1187441Y-173727D01*
G01X-1186674Y-173811D01*
G01X-1185905Y-173854D01*
G01X-1185133Y-173854D01*
G01X-1184363Y-173811D01*
G01X-1183596Y-173727D01*
G01X-1182834Y-173600D01*
G01X-1182082Y-173430D01*
G01X-1181340Y-173222D01*
G01X-1180609Y-172970D01*
G01X-1179895Y-172681D01*
G01X-1179197Y-172350D01*
G01X-1178518Y-171985D01*
G01X-1177860Y-171578D01*
G01X-1177228Y-171139D01*
G01X-1176618Y-170666D01*
G01X-1176037Y-170158D01*
G01X-1175483Y-169620D01*
G01X-1174960Y-169054D01*
G01X-1174470Y-168459D01*
G01X-1174012Y-167837D01*
G01X-1173591Y-167189D01*
G01X-1173205Y-166521D01*
G01X-1172857Y-165833D01*
G01X-1172547Y-165127D01*
G01X-1172278Y-164405D01*
G01X-1172046Y-163669D01*
G01X-1171856Y-162919D01*
G01X-1171709Y-162162D01*
G01X-1171602Y-161398D01*
G01X-1171538Y-160631D01*
G01X-1171518Y-159859D01*
G01X-1171518Y-107860D01*
G01X-1171538Y-107088D01*
G01X-1171602Y-106321D01*
G01X-1171709Y-105556D01*
G01X-1171856Y-104799D01*
G01X-1172046Y-104050D01*
G01X-1172278Y-103313D01*
G01X-1172547Y-102592D01*
G01X-1172857Y-101886D01*
G01X-1173205Y-101197D01*
G01X-1173591Y-100529D01*
G01X-1174012Y-99882D01*
G01X-1174470Y-99259D01*
G01X-1174960Y-98665D01*
G01X-1175483Y-98099D01*
G01X-1176037Y-97560D01*
G01X-1176618Y-97052D01*
G01X-1177228Y-96580D01*
G01X-1177860Y-96140D01*
G01X-1178518Y-95734D01*
G01X-1179197Y-95368D01*
G01X-1179895Y-95038D01*
G01X-1180609Y-94748D01*
G01X-1181340Y-94497D01*
G01X-1182082Y-94289D01*
G01X-1182834Y-94118D01*
G01X-1183596Y-93991D01*
G01X-1184363Y-93908D01*
G01X-1185133Y-93864D01*
G01X-1185905Y-93864D01*
G37*
G36*
G01X-1285904Y-93864D02*
G01X-1286674Y-93908D01*
G01X-1287441Y-93991D01*
G01X-1288203Y-94118D01*
G01X-1288955Y-94289D01*
G01X-1289697Y-94497D01*
G01X-1290428Y-94748D01*
G01X-1291142Y-95038D01*
G01X-1291840Y-95368D01*
G01X-1292519Y-95734D01*
G01X-1293176Y-96140D01*
G01X-1293809Y-96580D01*
G01X-1294419Y-97052D01*
G01X-1295000Y-97560D01*
G01X-1295554Y-98099D01*
G01X-1296077Y-98665D01*
G01X-1296567Y-99259D01*
G01X-1297025Y-99882D01*
G01X-1297446Y-100529D01*
G01X-1297832Y-101197D01*
G01X-1298180Y-101886D01*
G01X-1298490Y-102592D01*
G01X-1298759Y-103313D01*
G01X-1298991Y-104050D01*
G01X-1299181Y-104799D01*
G01X-1299328Y-105556D01*
G01X-1299435Y-106321D01*
G01X-1299499Y-107088D01*
G01X-1299519Y-107860D01*
G01X-1299519Y-159859D01*
G01X-1299499Y-160631D01*
G01X-1299435Y-161398D01*
G01X-1299328Y-162162D01*
G01X-1299181Y-162919D01*
G01X-1298991Y-163669D01*
G01X-1298759Y-164405D01*
G01X-1298490Y-165127D01*
G01X-1298180Y-165833D01*
G01X-1297832Y-166521D01*
G01X-1297446Y-167189D01*
G01X-1297025Y-167837D01*
G01X-1296567Y-168459D01*
G01X-1296077Y-169054D01*
G01X-1295554Y-169620D01*
G01X-1295000Y-170158D01*
G01X-1294419Y-170666D01*
G01X-1293809Y-171139D01*
G01X-1293176Y-171578D01*
G01X-1292519Y-171985D01*
G01X-1291840Y-172350D01*
G01X-1291142Y-172681D01*
G01X-1290428Y-172970D01*
G01X-1289697Y-173222D01*
G01X-1288955Y-173430D01*
G01X-1288203Y-173600D01*
G01X-1287441Y-173727D01*
G01X-1286674Y-173811D01*
G01X-1285904Y-173854D01*
G01X-1285132Y-173854D01*
G01X-1284363Y-173811D01*
G01X-1283596Y-173727D01*
G01X-1282834Y-173600D01*
G01X-1282082Y-173430D01*
G01X-1281340Y-173222D01*
G01X-1280609Y-172970D01*
G01X-1279895Y-172681D01*
G01X-1279196Y-172350D01*
G01X-1278518Y-171985D01*
G01X-1277860Y-171578D01*
G01X-1277228Y-171139D01*
G01X-1276618Y-170666D01*
G01X-1276037Y-170158D01*
G01X-1275483Y-169620D01*
G01X-1274960Y-169054D01*
G01X-1274469Y-168459D01*
G01X-1274012Y-167837D01*
G01X-1273591Y-167189D01*
G01X-1273204Y-166521D01*
G01X-1272856Y-165833D01*
G01X-1272547Y-165127D01*
G01X-1272277Y-164405D01*
G01X-1272046Y-163669D01*
G01X-1271856Y-162919D01*
G01X-1271708Y-162162D01*
G01X-1271602Y-161398D01*
G01X-1271538Y-160631D01*
G01X-1271518Y-159859D01*
G01X-1271518Y-107860D01*
G01X-1271538Y-107088D01*
G01X-1271602Y-106321D01*
G01X-1271708Y-105556D01*
G01X-1271856Y-104799D01*
G01X-1272046Y-104050D01*
G01X-1272277Y-103313D01*
G01X-1272547Y-102592D01*
G01X-1272856Y-101886D01*
G01X-1273204Y-101197D01*
G01X-1273591Y-100529D01*
G01X-1274012Y-99882D01*
G01X-1274469Y-99259D01*
G01X-1274960Y-98665D01*
G01X-1275483Y-98099D01*
G01X-1276037Y-97560D01*
G01X-1276618Y-97052D01*
G01X-1277228Y-96580D01*
G01X-1277860Y-96140D01*
G01X-1278518Y-95734D01*
G01X-1279196Y-95368D01*
G01X-1279895Y-95038D01*
G01X-1280609Y-94748D01*
G01X-1281340Y-94497D01*
G01X-1282082Y-94289D01*
G01X-1282834Y-94118D01*
G01X-1283596Y-93991D01*
G01X-1284363Y-93908D01*
G01X-1285132Y-93864D01*
G01X-1285904Y-93864D01*
G37*
G36*
G01X-1110543Y-264834D02*
G01X-982545Y-264834D01*
G01X-977543Y-269836D01*
G01X-977543Y-384837D01*
G01X-982545Y-389835D01*
G01X-1023548Y-390338D01*
G01X-1023548Y-345337D01*
G01X-1068547Y-345337D01*
G01X-1068547Y-389338D01*
G01X-1110543Y-389835D01*
G01X-1115544Y-384837D01*
G01X-1115544Y-269836D01*
G01X-1110543Y-264834D01*
G37*
G36*
G01X-1110543Y-479835D02*
G01X-1068547Y-479838D01*
G01X-1068547Y-524336D01*
G01X-1023548Y-524336D01*
G01X-1023548Y-480338D01*
G01X-982545Y-479835D01*
G01X-977543Y-484836D01*
G01X-977543Y-599835D01*
G01X-982545Y-604836D01*
G01X-1110543Y-604836D01*
G01X-1115544Y-599835D01*
G01X-1115544Y-484836D01*
G01X-1110543Y-479835D01*
G37*
G36*
G01X202243Y-213412D02*
G02X202243Y-293412I0J-40000D01*
G01X122238Y-293412D01*
G02X122238Y-213412I0J40000D01*
G01X202243Y-213412D01*
G37*
G36*
G01X-147744Y-213412D02*
G02X-147744Y-293412I0J-40000D01*
G01X-227749Y-293412D01*
G02X-227749Y-213412I0J40000D01*
G01X-147744Y-213412D01*
G37*
G36*
G01X-147744Y346584D02*
G02X-147744Y266579I0J-40002D01*
G01X-227749Y266579D01*
G02X-227749Y346584I0J40002D01*
G01X-147744Y346584D01*
G37*
G36*
G01X202243Y346584D02*
G02X202243Y266579I0J-40002D01*
G01X122238Y266579D01*
G02X122238Y346584I0J40002D01*
G01X202243Y346584D01*
G37*
G36*
G01X403246Y71599D02*
G02X403246Y-18404I0J-45001D01*
G01X373246Y-18404D01*
G02X373246Y71599I0J45001D01*
G01X403246Y71599D01*
G37*
G36*
G01X-398759Y71599D02*
G02X-398759Y-18404I0J-45001D01*
G01X-428754Y-18404D01*
G02X-428754Y71599I0J45001D01*
G01X-398759Y71599D01*
G37*
G36*
G01X-273745Y-118909D02*
G01X-301744Y-118909D01*
G01X-301744Y-12912D01*
G01X-273745Y-12912D01*
G01X-273745Y-118909D01*
G37*
G36*
G01X-223748Y-118909D02*
G01X-251749Y-118909D01*
G01X-251749Y-12912D01*
G01X-223748Y-12912D01*
G01X-223748Y-118909D01*
G37*
G36*
G01X-173746Y-118909D02*
G01X-201749Y-118909D01*
G01X-201749Y-12912D01*
G01X-173746Y-12912D01*
G01X-173746Y-118909D01*
G37*
G36*
G01X-123743Y-118909D02*
G01X-151747Y-118909D01*
G01X-151747Y-12912D01*
G01X-123743Y-12912D01*
G01X-123743Y-118909D01*
G37*
G36*
G01X-73743Y-118909D02*
G01X-101747Y-118909D01*
G01X-101747Y-12912D01*
G01X-73743Y-12912D01*
G01X-73743Y-118909D01*
G37*
G36*
G01X-23746Y-118909D02*
G01X-51747Y-118909D01*
G01X-51747Y-12912D01*
G01X-23746Y-12912D01*
G01X-23746Y-118909D01*
G37*
G36*
G01X26251Y-118909D02*
G01X-1752Y-118909D01*
G01X-1752Y-12912D01*
G01X26251Y-12912D01*
G01X26251Y-118909D01*
G37*
G36*
G01X76251Y-118909D02*
G01X48255Y-118909D01*
G01X48255Y-12912D01*
G01X76251Y-12912D01*
G01X76251Y-118909D01*
G37*
G36*
G01X126254Y-118909D02*
G01X98255Y-118909D01*
G01X98255Y-12912D01*
G01X126254Y-12912D01*
G01X126254Y-118909D01*
G37*
G36*
G01X176254Y-118909D02*
G01X148255Y-118909D01*
G01X148255Y-12912D01*
G01X176254Y-12912D01*
G01X176254Y-118909D01*
G37*
G36*
G01X226251Y-118909D02*
G01X198250Y-118909D01*
G01X198250Y-12912D01*
G01X226251Y-12912D01*
G01X226251Y-118909D01*
G37*
G36*
G01X276253Y-118909D02*
G01X248250Y-118909D01*
G01X248250Y-12912D01*
G01X276253Y-12912D01*
G01X276253Y-118909D01*
G37*
G36*
G01X276253Y66092D02*
G01X248250Y66092D01*
G01X248250Y172089D01*
G01X276253Y172089D01*
G01X276253Y66092D01*
G37*
G36*
G01X226251Y66092D02*
G01X198250Y66092D01*
G01X198250Y172089D01*
G01X226251Y172089D01*
G01X226251Y66092D01*
G37*
G36*
G01X176254Y66092D02*
G01X148255Y66092D01*
G01X148255Y172089D01*
G01X176254Y172089D01*
G01X176254Y66092D01*
G37*
G36*
G01X126254Y66092D02*
G01X98255Y66092D01*
G01X98255Y172089D01*
G01X126254Y172089D01*
G01X126254Y66092D01*
G37*
G36*
G01X76251Y66092D02*
G01X48255Y66092D01*
G01X48255Y172089D01*
G01X76251Y172089D01*
G01X76251Y66092D01*
G37*
G36*
G01X26251Y66092D02*
G01X-1752Y66092D01*
G01X-1752Y172089D01*
G01X26251Y172089D01*
G01X26251Y66092D01*
G37*
G36*
G01X-23746Y66092D02*
G01X-51747Y66092D01*
G01X-51747Y172089D01*
G01X-23746Y172089D01*
G01X-23746Y66092D01*
G37*
G36*
G01X-73743Y66092D02*
G01X-101747Y66092D01*
G01X-101747Y172089D01*
G01X-73743Y172089D01*
G01X-73743Y66092D01*
G37*
G36*
G01X-123743Y66092D02*
G01X-151747Y66092D01*
G01X-151747Y172089D01*
G01X-123743Y172089D01*
G01X-123743Y66092D01*
G37*
G36*
G01X-173746Y66092D02*
G01X-201749Y66092D01*
G01X-201749Y172089D01*
G01X-173746Y172089D01*
G01X-173746Y66092D01*
G37*
G36*
G01X-223748Y66092D02*
G01X-251749Y66092D01*
G01X-251749Y172089D01*
G01X-223748Y172089D01*
G01X-223748Y66092D01*
G37*
G36*
G01X-273745Y66092D02*
G01X-301744Y66092D01*
G01X-301744Y172089D01*
G01X-273745Y172089D01*
G01X-273745Y66092D01*
G37*
G36*
G01X-439298Y743499D02*
G01X-519298Y743499D01*
G01X-524299Y738497D01*
G01X-524299Y715701D01*
G01X-487299Y715701D01*
G01X-487299Y682701D01*
G01X-524299Y682701D01*
G01X-524299Y658498D01*
G01X-519298Y653499D01*
G01X-439298Y653499D01*
G01X-434299Y658498D01*
G01X-434299Y738497D01*
G01X-439298Y743499D01*
G37*
G36*
G01X-678302Y653501D02*
G01X-598302Y653501D01*
G01X-593301Y658503D01*
G01X-593301Y681299D01*
G01X-630301Y681299D01*
G01X-630301Y714299D01*
G01X-593301Y714299D01*
G01X-593301Y738502D01*
G01X-598302Y743501D01*
G01X-678302Y743501D01*
G01X-683301Y738502D01*
G01X-683301Y658503D01*
G01X-678302Y653501D01*
G37*
G36*
G01X-439298Y578399D02*
G01X-519298Y578399D01*
G01X-524299Y573397D01*
G01X-524299Y550601D01*
G01X-487299Y550601D01*
G01X-487299Y517601D01*
G01X-524299Y517601D01*
G01X-524299Y493398D01*
G01X-519298Y488399D01*
G01X-439298Y488399D01*
G01X-434299Y493398D01*
G01X-434299Y573397D01*
G01X-439298Y578399D01*
G37*
G36*
G01X-678302Y488401D02*
G01X-598302Y488401D01*
G01X-593301Y493403D01*
G01X-593301Y516199D01*
G01X-630301Y516199D01*
G01X-630301Y549199D01*
G01X-593301Y549199D01*
G01X-593301Y573402D01*
G01X-598302Y578401D01*
G01X-678302Y578401D01*
G01X-683301Y573402D01*
G01X-683301Y493403D01*
G01X-678302Y488401D01*
G37*

G04 Pad Start*
G54D10*
G01X-2298700Y355600D03*
G01X-2296468Y-316845D03*
G54D11*
G01X-1840140Y22363D03*
G01X-1980145Y22363D03*
G01X-1840140Y365263D03*
G01X-1980145Y365263D03*
G01X-1980145Y192549D03*
G01X-1840140Y192549D03*
G54D12*
G01X-1833942Y-161634D03*
G01X-1833942Y-301639D03*
G01X-1630742Y104761D03*
G01X-1630742Y244766D03*
G01X-1630742Y-212739D03*
G01X-1630742Y-72734D03*
G01X-1414842Y-364834D03*
G01X-1414842Y-504839D03*
G01X-1237042Y-364834D03*
G01X-1237042Y-504839D03*
G01X-1237042Y409561D03*
G01X-1237042Y549566D03*
G01X-1059242Y549566D03*
G01X-1059242Y409561D03*
G01X-830642Y-47639D03*
G01X-830642Y92366D03*
G54D13*
G01X-97657Y-2122889D03*
G01X62236Y-2122864D03*
G01X-97657Y2177110D03*
G01X62236Y2177136D03*
G04 Pad End*

M02*

