G04 Layer: TopSilkscreenLayer*
G04 EasyEDA Pro v2.2.42.2, 2025-09-27 19:40:42*
G04 Gerber Generator version 0.3*
G04 Scale: 100 percent, Rotated: No, Reflected: No*
G04 Dimensions in millimeters*
G04 Leading zeros omitted, absolute positions, 4 integers and 5 decimals*
G04 Generated by one-click*
%FSLAX45Y45*%
%MOMM*%
%ADD10C,0.1524*%
%ADD11C,0.254*%
%ADD12C,0.2*%
%ADD13C,0.3*%
%ADD14C,0.15001*%
%ADD15C,0.9673*%
G75*


G04 Text Start*
G54D10*
G01X-1854962Y-422910D02*
G01X-1858010Y-416560D01*
G01X-1864360Y-410464D01*
G01X-1870456Y-407416D01*
G01X-1882902Y-407416D01*
G01X-1888998Y-410464D01*
G01X-1895348Y-416560D01*
G01X-1898396Y-422910D01*
G01X-1901444Y-432054D01*
G01X-1901444Y-447548D01*
G01X-1898396Y-456946D01*
G01X-1895348Y-463042D01*
G01X-1888998Y-469392D01*
G01X-1882902Y-472440D01*
G01X-1870456Y-472440D01*
G01X-1864360Y-469392D01*
G01X-1858010Y-463042D01*
G01X-1854962Y-456946D01*
G01X-1794002Y-407416D02*
G01X-1824736Y-450596D01*
G01X-1778508Y-450596D01*
G01X-1794002Y-407416D02*
G01X-1794002Y-472440D01*
G01X-2008440Y-305297D02*
G01X-2011488Y-298947D01*
G01X-2017838Y-292851D01*
G01X-2023934Y-289803D01*
G01X-2036380Y-289803D01*
G01X-2042476Y-292851D01*
G01X-2048826Y-298947D01*
G01X-2051874Y-305297D01*
G01X-2054922Y-314441D01*
G01X-2054922Y-329935D01*
G01X-2051874Y-339333D01*
G01X-2048826Y-345429D01*
G01X-2042476Y-351779D01*
G01X-2036380Y-354827D01*
G01X-2023934Y-354827D01*
G01X-2017838Y-351779D01*
G01X-2011488Y-345429D01*
G01X-2008440Y-339333D01*
G01X-1972118Y-289803D02*
G01X-1938082Y-289803D01*
G01X-1956624Y-314441D01*
G01X-1947480Y-314441D01*
G01X-1941130Y-317489D01*
G01X-1938082Y-320791D01*
G01X-1935034Y-329935D01*
G01X-1935034Y-336285D01*
G01X-1938082Y-345429D01*
G01X-1944178Y-351779D01*
G01X-1953576Y-354827D01*
G01X-1962974Y-354827D01*
G01X-1972118Y-351779D01*
G01X-1975166Y-348477D01*
G01X-1978214Y-342381D01*
G01X-2008440Y-102097D02*
G01X-2011488Y-95747D01*
G01X-2017838Y-89651D01*
G01X-2023934Y-86603D01*
G01X-2036380Y-86603D01*
G01X-2042476Y-89651D01*
G01X-2048826Y-95747D01*
G01X-2051874Y-102097D01*
G01X-2054922Y-111241D01*
G01X-2054922Y-126735D01*
G01X-2051874Y-136133D01*
G01X-2048826Y-142229D01*
G01X-2042476Y-148579D01*
G01X-2036380Y-151627D01*
G01X-2023934Y-151627D01*
G01X-2017838Y-148579D01*
G01X-2011488Y-142229D01*
G01X-2008440Y-136133D01*
G01X-1978214Y-99049D02*
G01X-1972118Y-95747D01*
G01X-1962974Y-86603D01*
G01X-1962974Y-151627D01*
G01X-2008440Y-203697D02*
G01X-2011488Y-197347D01*
G01X-2017838Y-191251D01*
G01X-2023934Y-188203D01*
G01X-2036380Y-188203D01*
G01X-2042476Y-191251D01*
G01X-2048826Y-197347D01*
G01X-2051874Y-203697D01*
G01X-2054922Y-212841D01*
G01X-2054922Y-228335D01*
G01X-2051874Y-237733D01*
G01X-2048826Y-243829D01*
G01X-2042476Y-250179D01*
G01X-2036380Y-253227D01*
G01X-2023934Y-253227D01*
G01X-2017838Y-250179D01*
G01X-2011488Y-243829D01*
G01X-2008440Y-237733D01*
G01X-1975166Y-203697D02*
G01X-1975166Y-200649D01*
G01X-1972118Y-194299D01*
G01X-1969070Y-191251D01*
G01X-1962974Y-188203D01*
G01X-1950528Y-188203D01*
G01X-1944178Y-191251D01*
G01X-1941130Y-194299D01*
G01X-1938082Y-200649D01*
G01X-1938082Y-206745D01*
G01X-1941130Y-212841D01*
G01X-1947480Y-222239D01*
G01X-1978214Y-253227D01*
G01X-1935034Y-253227D01*
G01X-1640140Y393203D02*
G01X-1643188Y399553D01*
G01X-1649538Y405649D01*
G01X-1655634Y408697D01*
G01X-1668080Y408697D01*
G01X-1674176Y405649D01*
G01X-1680526Y399553D01*
G01X-1683574Y393203D01*
G01X-1686622Y384059D01*
G01X-1686622Y368565D01*
G01X-1683574Y359167D01*
G01X-1680526Y353071D01*
G01X-1674176Y346721D01*
G01X-1668080Y343673D01*
G01X-1655634Y343673D01*
G01X-1649538Y346721D01*
G01X-1643188Y353071D01*
G01X-1640140Y359167D01*
G01X-1572830Y408697D02*
G01X-1603818Y408697D01*
G01X-1606866Y381011D01*
G01X-1603818Y384059D01*
G01X-1594674Y387107D01*
G01X-1585276Y387107D01*
G01X-1575878Y384059D01*
G01X-1569782Y377709D01*
G01X-1566734Y368565D01*
G01X-1566734Y362215D01*
G01X-1569782Y353071D01*
G01X-1575878Y346721D01*
G01X-1585276Y343673D01*
G01X-1594674Y343673D01*
G01X-1603818Y346721D01*
G01X-1606866Y350023D01*
G01X-1609914Y356119D01*
G01X-1638616Y-330697D02*
G01X-1641664Y-324347D01*
G01X-1648014Y-318251D01*
G01X-1654110Y-315203D01*
G01X-1666556Y-315203D01*
G01X-1672652Y-318251D01*
G01X-1679002Y-324347D01*
G01X-1682050Y-330697D01*
G01X-1685098Y-339841D01*
G01X-1685098Y-355335D01*
G01X-1682050Y-364733D01*
G01X-1679002Y-370829D01*
G01X-1672652Y-377179D01*
G01X-1666556Y-380227D01*
G01X-1654110Y-380227D01*
G01X-1648014Y-377179D01*
G01X-1641664Y-370829D01*
G01X-1638616Y-364733D01*
G01X-1571306Y-324347D02*
G01X-1574354Y-318251D01*
G01X-1583752Y-315203D01*
G01X-1589848Y-315203D01*
G01X-1599246Y-318251D01*
G01X-1605342Y-327649D01*
G01X-1608390Y-342889D01*
G01X-1608390Y-358383D01*
G01X-1605342Y-370829D01*
G01X-1599246Y-377179D01*
G01X-1589848Y-380227D01*
G01X-1586800Y-380227D01*
G01X-1577656Y-377179D01*
G01X-1571306Y-370829D01*
G01X-1568258Y-361685D01*
G01X-1568258Y-358383D01*
G01X-1571306Y-349239D01*
G01X-1577656Y-342889D01*
G01X-1586800Y-339841D01*
G01X-1589848Y-339841D01*
G01X-1599246Y-342889D01*
G01X-1605342Y-349239D01*
G01X-1608390Y-358383D01*
G01X-1475040Y-216397D02*
G01X-1478088Y-210047D01*
G01X-1484438Y-203951D01*
G01X-1490534Y-200903D01*
G01X-1502980Y-200903D01*
G01X-1509076Y-203951D01*
G01X-1515426Y-210047D01*
G01X-1518474Y-216397D01*
G01X-1521522Y-225541D01*
G01X-1521522Y-241035D01*
G01X-1518474Y-250433D01*
G01X-1515426Y-256529D01*
G01X-1509076Y-262879D01*
G01X-1502980Y-265927D01*
G01X-1490534Y-265927D01*
G01X-1484438Y-262879D01*
G01X-1478088Y-256529D01*
G01X-1475040Y-250433D01*
G01X-1401634Y-200903D02*
G01X-1432622Y-265927D01*
G01X-1444814Y-200903D02*
G01X-1401634Y-200903D01*
G01X-1483422Y332497D02*
G01X-1483422Y286015D01*
G01X-1480374Y276871D01*
G01X-1474024Y270521D01*
G01X-1464880Y267473D01*
G01X-1458530Y267473D01*
G01X-1449386Y270521D01*
G01X-1443290Y276871D01*
G01X-1439988Y286015D01*
G01X-1439988Y332497D01*
G01X-1409762Y320051D02*
G01X-1403666Y323353D01*
G01X-1394522Y332497D01*
G01X-1394522Y267473D01*
G01X-1233740Y-216397D02*
G01X-1236788Y-210047D01*
G01X-1243138Y-203951D01*
G01X-1249234Y-200903D01*
G01X-1261680Y-200903D01*
G01X-1267776Y-203951D01*
G01X-1274126Y-210047D01*
G01X-1277174Y-216397D01*
G01X-1280222Y-225541D01*
G01X-1280222Y-241035D01*
G01X-1277174Y-250433D01*
G01X-1274126Y-256529D01*
G01X-1267776Y-262879D01*
G01X-1261680Y-265927D01*
G01X-1249234Y-265927D01*
G01X-1243138Y-262879D01*
G01X-1236788Y-256529D01*
G01X-1233740Y-250433D01*
G01X-1188274Y-200903D02*
G01X-1197418Y-203951D01*
G01X-1200466Y-210047D01*
G01X-1200466Y-216397D01*
G01X-1197418Y-222493D01*
G01X-1191322Y-225541D01*
G01X-1178876Y-228589D01*
G01X-1169478Y-231891D01*
G01X-1163382Y-237987D01*
G01X-1160334Y-244083D01*
G01X-1160334Y-253481D01*
G01X-1163382Y-259577D01*
G01X-1166430Y-262879D01*
G01X-1175828Y-265927D01*
G01X-1188274Y-265927D01*
G01X-1197418Y-262879D01*
G01X-1200466Y-259577D01*
G01X-1203514Y-253481D01*
G01X-1203514Y-244083D01*
G01X-1200466Y-237987D01*
G01X-1194370Y-231891D01*
G01X-1184972Y-228589D01*
G01X-1172780Y-225541D01*
G01X-1166430Y-222493D01*
G01X-1163382Y-216397D01*
G01X-1163382Y-210047D01*
G01X-1166430Y-203951D01*
G01X-1175828Y-200903D01*
G01X-1188274Y-200903D01*
G01X-1144840Y291603D02*
G01X-1147888Y297953D01*
G01X-1154238Y304049D01*
G01X-1160334Y307097D01*
G01X-1172780Y307097D01*
G01X-1178876Y304049D01*
G01X-1185226Y297953D01*
G01X-1188274Y291603D01*
G01X-1191322Y282459D01*
G01X-1191322Y266965D01*
G01X-1188274Y257567D01*
G01X-1185226Y251471D01*
G01X-1178876Y245121D01*
G01X-1172780Y242073D01*
G01X-1160334Y242073D01*
G01X-1154238Y245121D01*
G01X-1147888Y251471D01*
G01X-1144840Y257567D01*
G01X-1074482Y285507D02*
G01X-1077530Y276109D01*
G01X-1083880Y270013D01*
G01X-1093024Y266965D01*
G01X-1096072Y266965D01*
G01X-1105470Y270013D01*
G01X-1111566Y276109D01*
G01X-1114614Y285507D01*
G01X-1114614Y288555D01*
G01X-1111566Y297953D01*
G01X-1105470Y304049D01*
G01X-1096072Y307097D01*
G01X-1093024Y307097D01*
G01X-1083880Y304049D01*
G01X-1077530Y297953D01*
G01X-1074482Y285507D01*
G01X-1074482Y270013D01*
G01X-1077530Y254519D01*
G01X-1083880Y245121D01*
G01X-1093024Y242073D01*
G01X-1099374Y242073D01*
G01X-1108518Y245121D01*
G01X-1111566Y251471D01*
G01X-992440Y291603D02*
G01X-995488Y297953D01*
G01X-1001838Y304049D01*
G01X-1007934Y307097D01*
G01X-1020380Y307097D01*
G01X-1026476Y304049D01*
G01X-1032826Y297953D01*
G01X-1035874Y291603D01*
G01X-1038922Y282459D01*
G01X-1038922Y266965D01*
G01X-1035874Y257567D01*
G01X-1032826Y251471D01*
G01X-1026476Y245121D01*
G01X-1020380Y242073D01*
G01X-1007934Y242073D01*
G01X-1001838Y245121D01*
G01X-995488Y251471D01*
G01X-992440Y257567D01*
G01X-962214Y294651D02*
G01X-956118Y297953D01*
G01X-946974Y307097D01*
G01X-946974Y242073D01*
G01X-898206Y307097D02*
G01X-907604Y304049D01*
G01X-913700Y294651D01*
G01X-916748Y279411D01*
G01X-916748Y270013D01*
G01X-913700Y254519D01*
G01X-907604Y245121D01*
G01X-898206Y242073D01*
G01X-892110Y242073D01*
G01X-882712Y245121D01*
G01X-876616Y254519D01*
G01X-873568Y270013D01*
G01X-873568Y279411D01*
G01X-876616Y294651D01*
G01X-882712Y304049D01*
G01X-892110Y307097D01*
G01X-898206Y307097D01*
G01X-1000822Y-162803D02*
G01X-1000822Y-227827D01*
G01X-1000822Y-162803D02*
G01X-972882Y-162803D01*
G01X-963738Y-165851D01*
G01X-960690Y-168899D01*
G01X-957388Y-175249D01*
G01X-957388Y-181345D01*
G01X-960690Y-187441D01*
G01X-963738Y-190489D01*
G01X-972882Y-193791D01*
G01X-1000822Y-193791D01*
G01X-979232Y-193791D02*
G01X-957388Y-227827D01*
G01X-927162Y-175249D02*
G01X-921066Y-171947D01*
G01X-911922Y-162803D01*
G01X-911922Y-227827D01*
G01X-827340Y-178297D02*
G01X-830388Y-171947D01*
G01X-836738Y-165851D01*
G01X-842834Y-162803D01*
G01X-855280Y-162803D01*
G01X-861376Y-165851D01*
G01X-867726Y-171947D01*
G01X-870774Y-178297D01*
G01X-873822Y-187441D01*
G01X-873822Y-202935D01*
G01X-870774Y-212333D01*
G01X-867726Y-218429D01*
G01X-861376Y-224779D01*
G01X-855280Y-227827D01*
G01X-842834Y-227827D01*
G01X-836738Y-224779D01*
G01X-830388Y-218429D01*
G01X-827340Y-212333D01*
G01X-797114Y-175249D02*
G01X-791018Y-171947D01*
G01X-781874Y-162803D01*
G01X-781874Y-227827D01*
G01X-751648Y-175249D02*
G01X-745552Y-171947D01*
G01X-736408Y-162803D01*
G01X-736408Y-227827D01*
G01X-135485Y-1938181D02*
G01X-135485Y-2003205D01*
G01X-135485Y-2003205D02*
G01X-98401Y-2003205D01*
G01X-68175Y-1938181D02*
G01X-68175Y-2003205D01*
G01X-68175Y-1938181D02*
G01X-28043Y-1938181D01*
G01X-68175Y-1969169D02*
G01X-43537Y-1969169D01*
G01X-68175Y-2003205D02*
G01X-28043Y-2003205D01*
G01X2183Y-1938181D02*
G01X2183Y-2003205D01*
G01X2183Y-1938181D02*
G01X23773Y-1938181D01*
G01X32917Y-1941229D01*
G01X39267Y-1947325D01*
G01X42315Y-1953675D01*
G01X45363Y-1962819D01*
G01X45363Y-1978313D01*
G01X42315Y-1987711D01*
G01X39267Y-1993807D01*
G01X32917Y-2000157D01*
G01X23773Y-2003205D01*
G01X2183Y-2003205D01*
G01X75589Y-1950627D02*
G01X81685Y-1947325D01*
G01X90829Y-1938181D01*
G01X90829Y-2003205D01*
G01X-137091Y2360257D02*
G01X-137091Y2295233D01*
G01X-137091Y2295233D02*
G01X-100007Y2295233D01*
G01X-69781Y2360257D02*
G01X-69781Y2295233D01*
G01X-69781Y2360257D02*
G01X-29649Y2360257D01*
G01X-69781Y2329269D02*
G01X-45143Y2329269D01*
G01X-69781Y2295233D02*
G01X-29649Y2295233D01*
G01X577Y2360257D02*
G01X577Y2295233D01*
G01X577Y2360257D02*
G01X22167Y2360257D01*
G01X31311Y2357209D01*
G01X37661Y2351113D01*
G01X40709Y2344763D01*
G01X43757Y2335619D01*
G01X43757Y2320125D01*
G01X40709Y2310727D01*
G01X37661Y2304631D01*
G01X31311Y2298281D01*
G01X22167Y2295233D01*
G01X577Y2295233D01*
G01X77031Y2344763D02*
G01X77031Y2347811D01*
G01X80079Y2354161D01*
G01X83127Y2357209D01*
G01X89223Y2360257D01*
G01X101669Y2360257D01*
G01X108019Y2357209D01*
G01X111067Y2354161D01*
G01X114115Y2347811D01*
G01X114115Y2341715D01*
G01X111067Y2335619D01*
G01X104717Y2326221D01*
G01X73983Y2295233D01*
G01X117163Y2295233D01*
G01X-843280Y729234D02*
G01X-843280Y664210D01*
G01X-843280Y729234D02*
G01X-815340Y729234D01*
G01X-806196Y726186D01*
G01X-803148Y723138D01*
G01X-799846Y716788D01*
G01X-799846Y710692D01*
G01X-803148Y704596D01*
G01X-806196Y701548D01*
G01X-815340Y698246D01*
G01X-843280Y698246D01*
G01X-821690Y698246D02*
G01X-799846Y664210D01*
G01X-766572Y713740D02*
G01X-766572Y716788D01*
G01X-763524Y723138D01*
G01X-760476Y726186D01*
G01X-754380Y729234D01*
G01X-741934Y729234D01*
G01X-735584Y726186D01*
G01X-732536Y723138D01*
G01X-729488Y716788D01*
G01X-729488Y710692D01*
G01X-732536Y704596D01*
G01X-738886Y695198D01*
G01X-769620Y664210D01*
G01X-726440Y664210D01*
G01X-855980Y564134D02*
G01X-855980Y499110D01*
G01X-855980Y564134D02*
G01X-828040Y564134D01*
G01X-818896Y561086D01*
G01X-815848Y558038D01*
G01X-812546Y551688D01*
G01X-812546Y545592D01*
G01X-815848Y539496D01*
G01X-818896Y536448D01*
G01X-828040Y533146D01*
G01X-855980Y533146D01*
G01X-834390Y533146D02*
G01X-812546Y499110D01*
G01X-776224Y564134D02*
G01X-742188Y564134D01*
G01X-760730Y539496D01*
G01X-751586Y539496D01*
G01X-745236Y536448D01*
G01X-742188Y533146D01*
G01X-739140Y524002D01*
G01X-739140Y517652D01*
G01X-742188Y508508D01*
G01X-748284Y502158D01*
G01X-757682Y499110D01*
G01X-767080Y499110D01*
G01X-776224Y502158D01*
G01X-779272Y505460D01*
G01X-782320Y511556D01*
G04 Text End*

G04 PolygonModel Start*
G54D11*
G01X-1771141Y62340D02*
G01X-1771141Y-17662D01*
G01X-1882116Y93326D02*
G01X-1802119Y93326D01*
G01X-1882116Y-48640D02*
G01X-1802119Y-48640D01*
G01X-1939706Y93908D02*
G01X-2019705Y93908D01*
G01X-2050688Y62925D02*
G01X-2050688Y-17073D01*
G01X-1939706Y-48053D02*
G01X-2019705Y-48053D01*
G01X-2050693Y62925D02*
G02X-2019710Y93908I30983J0D01*
G01X-2019710Y-48058D02*
G02X-2050693Y-17073I0J30983D01*
G01X-1802124Y93326D02*
G02X-1771141Y62340I0J-30983D01*
G01X-1771141Y-17657D02*
G02X-1802124Y-48640I-30983J0D01*
G01X-1771141Y405240D02*
G01X-1771141Y325238D01*
G01X-1882116Y436226D02*
G01X-1802119Y436226D01*
G01X-1882116Y294260D02*
G01X-1802119Y294260D01*
G01X-1939706Y436808D02*
G01X-2019705Y436808D01*
G01X-2050688Y405825D02*
G01X-2050688Y325827D01*
G01X-1939706Y294847D02*
G01X-2019705Y294847D01*
G01X-2050693Y405825D02*
G02X-2019710Y436808I30983J0D01*
G01X-2019710Y294842D02*
G02X-2050693Y325827I0J30983D01*
G01X-1802124Y436226D02*
G02X-1771141Y405240I0J-30983D01*
G01X-1771141Y325243D02*
G02X-1802124Y294260I-30983J0D01*
G01X-2049144Y152571D02*
G01X-2049144Y232574D01*
G01X-1938169Y121586D02*
G01X-2018166Y121586D01*
G01X-1938169Y263552D02*
G01X-2018166Y263552D01*
G01X-1880579Y121004D02*
G01X-1800580Y121004D01*
G01X-1769597Y151987D02*
G01X-1769597Y231985D01*
G01X-1880579Y262965D02*
G01X-1800580Y262965D01*
G01X-1769592Y151987D02*
G02X-1800575Y121004I-30983J0D01*
G01X-1800575Y262970D02*
G02X-1769592Y231985I0J-30983D01*
G01X-2018161Y121586D02*
G02X-2049144Y152571I0J30983D01*
G01X-2049144Y232569D02*
G02X-2018161Y263552I30983J0D01*
G01X-1873920Y-92635D02*
G01X-1793917Y-92635D01*
G01X-1904905Y-203610D02*
G01X-1904905Y-123613D01*
G01X-1762939Y-203610D02*
G01X-1762939Y-123613D01*
G01X-1905487Y-261200D02*
G01X-1905487Y-341199D01*
G01X-1874504Y-372182D02*
G01X-1794506Y-372182D01*
G01X-1763526Y-261200D02*
G01X-1763526Y-341199D01*
G01X-1874504Y-372187D02*
G02X-1905487Y-341205I0J30983D01*
G01X-1763521Y-341205D02*
G02X-1794506Y-372187I-30983J0D01*
G01X-1904905Y-123618D02*
G02X-1873920Y-92635I30983J0D01*
G01X-1793922Y-92635D02*
G02X-1762939Y-123618I0J-30983D01*
G01X-1590765Y35762D02*
G01X-1670768Y35762D01*
G01X-1559780Y146737D02*
G01X-1559780Y66740D01*
G01X-1701746Y146737D02*
G01X-1701746Y66740D01*
G01X-1559198Y204326D02*
G01X-1559198Y284326D01*
G01X-1590181Y315309D02*
G01X-1670179Y315309D01*
G01X-1701159Y204326D02*
G01X-1701159Y284326D01*
G01X-1590181Y315314D02*
G02X-1559198Y284331I0J-30983D01*
G01X-1701164Y284331D02*
G02X-1670179Y315314I30983J0D01*
G01X-1559780Y66745D02*
G02X-1590765Y35762I-30983J0D01*
G01X-1670763Y35762D02*
G02X-1701746Y66745I0J30983D01*
G01X-1590765Y-281738D02*
G01X-1670768Y-281738D01*
G01X-1559780Y-170763D02*
G01X-1559780Y-250760D01*
G01X-1701746Y-170763D02*
G01X-1701746Y-250760D01*
G01X-1559198Y-113174D02*
G01X-1559198Y-33174D01*
G01X-1590181Y-2191D02*
G01X-1670179Y-2191D01*
G01X-1701159Y-113174D02*
G01X-1701159Y-33174D01*
G01X-1590181Y-2186D02*
G02X-1559198Y-33169I0J-30983D01*
G01X-1701164Y-33169D02*
G02X-1670179Y-2186I30983J0D01*
G01X-1559780Y-250755D02*
G02X-1590765Y-281738I-30983J0D01*
G01X-1670763Y-281738D02*
G02X-1701746Y-250755I0J30983D01*
G01X-1454820Y-295835D02*
G01X-1374817Y-295835D01*
G01X-1485805Y-406810D02*
G01X-1485805Y-326813D01*
G01X-1343839Y-406810D02*
G01X-1343839Y-326813D01*
G01X-1486387Y-464400D02*
G01X-1486387Y-544399D01*
G01X-1455404Y-575382D02*
G01X-1375406Y-575382D01*
G01X-1344426Y-464400D02*
G01X-1344426Y-544399D01*
G01X-1455404Y-575387D02*
G02X-1486387Y-544405I0J30983D01*
G01X-1344421Y-544405D02*
G02X-1375406Y-575387I-30983J0D01*
G01X-1485805Y-326818D02*
G02X-1454820Y-295835I30983J0D01*
G01X-1374822Y-295835D02*
G02X-1343839Y-326818I0J-30983D01*
G54D12*
G01X-1383004Y149752D02*
G01X-1383004Y194735D01*
G01X-1383004Y194735D02*
G01X-1338020Y194735D01*
G01X-1083004Y194735D02*
G01X-1038021Y194735D01*
G01X-1038021Y194735D02*
G01X-1038021Y149752D01*
G01X-1083004Y-150247D02*
G01X-1038021Y-150247D01*
G01X-1038021Y-150247D02*
G01X-1038021Y-105264D01*
G01X-1338020Y-150247D02*
G01X-1383004Y-150247D01*
G01X-1383004Y-150247D02*
G01X-1383004Y-105264D01*
G54D13*
G01X-1418030Y174644D02*
G03X-1448032Y174517I-15001J-127D01*
G03X-1418030Y174390I15001J0D01*
G54D11*
G01X-1277020Y-295835D02*
G01X-1197017Y-295835D01*
G01X-1308005Y-406810D02*
G01X-1308005Y-326813D01*
G01X-1166039Y-406810D02*
G01X-1166039Y-326813D01*
G01X-1308587Y-464400D02*
G01X-1308587Y-544399D01*
G01X-1277604Y-575382D02*
G01X-1197606Y-575382D01*
G01X-1166626Y-464400D02*
G01X-1166626Y-544399D01*
G01X-1277604Y-575387D02*
G02X-1308587Y-544405I0J30983D01*
G01X-1166621Y-544405D02*
G02X-1197606Y-575387I-30983J0D01*
G01X-1308005Y-326818D02*
G02X-1277020Y-295835I30983J0D01*
G01X-1197022Y-295835D02*
G02X-1166039Y-326818I0J-30983D01*
G01X-1197065Y340562D02*
G01X-1277068Y340562D01*
G01X-1166080Y451537D02*
G01X-1166080Y371540D01*
G01X-1308046Y451537D02*
G01X-1308046Y371540D01*
G01X-1165498Y509126D02*
G01X-1165498Y589126D01*
G01X-1196481Y620109D02*
G01X-1276479Y620109D01*
G01X-1307459Y509126D02*
G01X-1307459Y589126D01*
G01X-1196481Y620114D02*
G02X-1165498Y589131I0J-30983D01*
G01X-1307464Y589131D02*
G02X-1276479Y620114I30983J0D01*
G01X-1166080Y371545D02*
G02X-1197065Y340562I-30983J0D01*
G01X-1277063Y340562D02*
G02X-1308046Y371545I0J30983D01*
G01X-1099220Y618565D02*
G01X-1019217Y618565D01*
G01X-1130205Y507590D02*
G01X-1130205Y587587D01*
G01X-988239Y507590D02*
G01X-988239Y587587D01*
G01X-1130787Y450000D02*
G01X-1130787Y370001D01*
G01X-1099804Y339018D02*
G01X-1019806Y339018D01*
G01X-988826Y450000D02*
G01X-988826Y370001D01*
G01X-1099804Y339013D02*
G02X-1130787Y369995I0J30983D01*
G01X-988821Y369995D02*
G02X-1019806Y339013I-30983J0D01*
G01X-1130205Y587582D02*
G02X-1099220Y618565I30983J0D01*
G01X-1019222Y618565D02*
G02X-988239Y587582I0J-30983D01*
G54D10*
G01X-1138252Y-482456D02*
G01X-1138252Y-610950D01*
G01X-1138252Y-610950D02*
G01X-954833Y-610950D01*
G01X-954833Y-610950D02*
G01X-954833Y-482456D01*
G01X-1138252Y-387217D02*
G01X-1138252Y-258723D01*
G01X-1138252Y-258723D02*
G01X-954833Y-258723D01*
G01X-954833Y-258723D02*
G01X-954833Y-387217D01*
G54D11*
G01X-790665Y-116638D02*
G01X-870668Y-116638D01*
G01X-759680Y-5663D02*
G01X-759680Y-85660D01*
G01X-901646Y-5663D02*
G01X-901646Y-85660D01*
G01X-759098Y51926D02*
G01X-759098Y131926D01*
G01X-790081Y162909D02*
G01X-870079Y162909D01*
G01X-901059Y51926D02*
G01X-901059Y131926D01*
G01X-790081Y162914D02*
G02X-759098Y131931I0J-30983D01*
G01X-901064Y131931D02*
G02X-870079Y162914I30983J0D01*
G01X-759680Y-85655D02*
G02X-790665Y-116638I-30983J0D01*
G01X-870663Y-116638D02*
G02X-901646Y-85655I0J30983D01*
G01X241267Y257026D02*
G01X241267Y194098D01*
G01X76167Y263592D02*
G01X76167Y195195D01*
G01X-101633Y263592D02*
G01X-101633Y195195D01*
G01X-266733Y257026D02*
G01X-266733Y194098D01*
G01X-266733Y-203867D02*
G01X-266733Y-140936D01*
G01X-114333Y-199915D02*
G01X-114333Y-140011D01*
G01X76167Y-202020D02*
G01X76167Y-142033D01*
G01X241267Y-203867D02*
G01X241267Y-140936D01*
G01X-444533Y92828D02*
G01X-444533Y166280D01*
G01X-444533Y-41320D02*
G01X-444533Y-39669D01*
G01X-425879Y-113120D02*
G01X-444533Y-113120D01*
G01X-444533Y-113120D02*
G01X-444533Y-91520D01*
G01X-324845Y-113120D02*
G01X-361586Y-113120D01*
G01X419067Y-39669D02*
G01X419067Y-113120D01*
G01X419067Y-113120D02*
G01X299383Y-113120D01*
G01X419067Y94479D02*
G01X419067Y92828D01*
G01X400414Y166280D02*
G01X419067Y166280D01*
G01X419067Y166280D02*
G01X419067Y144679D01*
G01X299383Y166280D02*
G01X336121Y166280D01*
G01X-444533Y166280D02*
G01X-324845Y166280D01*
G54D14*
G01X-39753Y-2090525D02*
G01X-38757Y-2090525D01*
G01X-38757Y-2090525D02*
G01X-5753Y-2123529D01*
G01X-39753Y-2158528D02*
G01X-39753Y-2157530D01*
G01X-39753Y-2157530D02*
G01X-5753Y-2123529D01*
G01X-39753Y-2158528D02*
G01X-39753Y-2090525D01*
G01X-41757Y-2198536D02*
G01X-156758Y-2198536D01*
G01X-41757Y-2048523D02*
G01X-156758Y-2048523D01*
G01X-156758Y-2198525D02*
G01X-156758Y-2050532D01*
G01X-3756Y-2048292D02*
G01X101255Y-2048292D01*
G01X131250Y-2088300D02*
G01X131250Y-2078297D01*
G01X131250Y-2078297D02*
G01X101255Y-2048292D01*
G01X131250Y-2158294D02*
G01X131250Y-2088300D01*
G01X131250Y-2158294D02*
G01X131250Y-2168310D01*
G01X131250Y-2168310D02*
G01X101255Y-2198304D01*
G01X-3756Y-2198304D02*
G01X101255Y-2198304D01*
G01X-39753Y-2123529D02*
G01X-5753Y-2123529D01*
G01X-39753Y2209475D02*
G01X-38757Y2209475D01*
G01X-38757Y2209475D02*
G01X-5753Y2176470D01*
G01X-39753Y2141472D02*
G01X-39753Y2142470D01*
G01X-39753Y2142470D02*
G01X-5753Y2176470D01*
G01X-39753Y2141472D02*
G01X-39753Y2209475D01*
G01X-41757Y2101464D02*
G01X-156758Y2101464D01*
G01X-41757Y2251477D02*
G01X-156758Y2251477D01*
G01X-156758Y2101474D02*
G01X-156758Y2249467D01*
G01X-3756Y2251708D02*
G01X101255Y2251708D01*
G01X131250Y2211700D02*
G01X131250Y2221703D01*
G01X131250Y2221703D02*
G01X101255Y2251708D01*
G01X131250Y2141705D02*
G01X131250Y2211700D01*
G01X131250Y2141705D02*
G01X131250Y2131690D01*
G01X131250Y2131690D02*
G01X101255Y2101695D01*
G01X-3756Y2101695D02*
G01X101255Y2101695D01*
G01X-39753Y2176470D02*
G01X-5753Y2176470D01*
G54D10*
G01X-516179Y632440D02*
G01X-420291Y632440D01*
G01X-420291Y632440D02*
G01X-420291Y764560D01*
G01X-420291Y764560D02*
G01X-516179Y764560D01*
G01X-601421Y632440D02*
G01X-697309Y632440D01*
G01X-697309Y632440D02*
G01X-697309Y764560D01*
G01X-697309Y764560D02*
G01X-601421Y764560D01*
G01X-516179Y467340D02*
G01X-420291Y467340D01*
G01X-420291Y467340D02*
G01X-420291Y599460D01*
G01X-420291Y599460D02*
G01X-516179Y599460D01*
G01X-601421Y467340D02*
G01X-697309Y467340D01*
G01X-697309Y467340D02*
G01X-697309Y599460D01*
G01X-697309Y599460D02*
G01X-601421Y599460D01*

M02*

