G04 Layer: TopSolderMaskLayer*
G04 EasyEDA Pro v2.2.42.2, 2025-09-27 19:40:42*
G04 Gerber Generator version 0.3*
G04 Scale: 100 percent, Rotated: No, Reflected: No*
G04 Dimensions in millimeters*
G04 Leading zeros omitted, absolute positions, 4 integers and 5 decimals*
G04 Generated by one-click*
%FSLAX45Y45*%
%MOMM*%
%AMRoundRect*1,1,$1,$2,$3*1,1,$1,$4,$5*1,1,$1,0-$2,0-$3*1,1,$1,0-$4,0-$5*20,1,$1,$2,$3,$4,$5,0*20,1,$1,$4,$5,0-$2,0-$3,0*20,1,$1,0-$2,0-$3,0-$4,0-$5,0*20,1,$1,0-$4,0-$5,$2,$3,0*4,1,4,$2,$3,$4,$5,0-$2,0-$3,0-$4,0-$5,$2,$3,0*%
%ADD10O,2.6016X1.7016*%
%ADD11RoundRect,0.09131X-0.40514X0.45514X0.40514X0.45514*%
%ADD12RoundRect,0.09131X-0.45514X-0.40514X-0.45514X0.40514*%
%ADD13O,0.9016X0.38161*%
%ADD14O,0.38161X0.9016*%
%ADD15RoundRect,0.1012X-0.95245X0.95245X0.95245X0.95245*%
%ADD16RoundRect,0.09669X-0.95245X0.95245X0.95245X0.95245*%
%ADD17RoundRect,0.09387X-0.69237X-0.57013X-0.69237X0.57013*%
%ADD18RoundRect,0.07918X-0.15043X0.54042X0.15043X0.54042*%
%ADD19O,1.70002X0.90002*%
%ADD20O,1.30002X1.00002*%
%ADD21RoundRect,0.09131X-0.40514X-0.40514X-0.40514X0.40514*%
%ADD22RoundRect,0.09138X-0.40835X0.43711X0.40835X0.43711*%
G75*


G04 Pad Start*
G54D10*
G01X-2298700Y355600D03*
G01X-2296468Y-316845D03*
G54D11*
G01X-1840140Y22363D03*
G01X-1980145Y22363D03*
G01X-1840140Y365263D03*
G01X-1980145Y365263D03*
G01X-1980145Y192549D03*
G01X-1840140Y192549D03*
G54D12*
G01X-1833942Y-161634D03*
G01X-1833942Y-301639D03*
G01X-1630742Y104761D03*
G01X-1630742Y244766D03*
G01X-1630742Y-212739D03*
G01X-1630742Y-72734D03*
G01X-1414842Y-364834D03*
G01X-1414842Y-504839D03*
G54D13*
G01X-1368119Y97255D03*
G01X-1368119Y47243D03*
G01X-1368119Y-2744D03*
G01X-1368119Y-52757D03*
G54D14*
G01X-1285518Y-133859D03*
G01X-1235506Y-133859D03*
G01X-1185519Y-133859D03*
G01X-1135506Y-133859D03*
G54D13*
G01X-1055166Y-52757D03*
G01X-1055166Y-2744D03*
G01X-1055166Y47243D03*
G01X-1055166Y97255D03*
G54D14*
G01X-1135506Y178586D03*
G01X-1185519Y178586D03*
G01X-1235506Y178586D03*
G01X-1285518Y178586D03*
G54D16*
G01X-1210512Y22249D03*
G54D12*
G01X-1237042Y-364834D03*
G01X-1237042Y-504839D03*
G01X-1237042Y409561D03*
G01X-1237042Y549566D03*
G01X-1059242Y549566D03*
G01X-1059242Y409561D03*
G54D17*
G01X-1046542Y-534836D03*
G01X-1046542Y-334837D03*
G54D12*
G01X-830642Y-47639D03*
G01X-830642Y92366D03*
G54D18*
G01X-287731Y-65920D03*
G01X-237743Y-65920D03*
G01X-187731Y-65920D03*
G01X-137744Y-65920D03*
G01X-87731Y-65920D03*
G01X-37744Y-65920D03*
G01X12269Y-65920D03*
G01X62256Y-65920D03*
G01X112269Y-65920D03*
G01X162256Y-65920D03*
G01X212268Y-65920D03*
G01X262256Y-65920D03*
G01X262256Y119094D03*
G01X212268Y119094D03*
G01X162256Y119094D03*
G01X112269Y119094D03*
G01X62256Y119094D03*
G01X12269Y119094D03*
G01X-37744Y119094D03*
G01X-87731Y119094D03*
G01X-137744Y119094D03*
G01X-187731Y119094D03*
G01X-237743Y119094D03*
G01X-287731Y119094D03*
G54D19*
G01X162256Y-253422D03*
G01X-187731Y-253422D03*
G01X-187731Y306571D03*
G01X162256Y306571D03*
G54D20*
G01X388265Y26587D03*
G01X-413740Y26587D03*
G54D21*
G01X-97657Y-2122889D03*
G01X62236Y-2122864D03*
G01X-97657Y2177110D03*
G01X62236Y2177136D03*
G54D22*
G01X-483464Y698500D03*
G01X-634136Y698500D03*
G01X-483464Y533400D03*
G01X-634136Y533400D03*
G04 Pad End*

M02*

